<?xml version="1.0" encoding="UTF-8"?>
<!DOCTYPE svg
  PUBLIC '-//W3C//DTD SVG 1.1//EN'
  'http://www.w3.org/Graphics/SVG/1.1/DTD/svg11.dtd'>
<svg height="6.06in" version="1.1" viewBox="0 0 9.7500 6.0622" width="9.75in" xmlns="http://www.w3.org/2000/svg" xmlns:xlink="http://www.w3.org/1999/xlink">
	<g fill="none" stroke="#03161d" stroke-width="0.0100" transform="translate(4.8750,3.0311) scale(1, -1)">
		<g>
			<!-- layer: triangles -->
			<g>
				<line x1="-0.375000" x2="-0.625000" y1="2.670245" y2="2.237232"/>
				<line x1="-0.875000" x2="-0.375000" y1="2.381570" y2="2.670245"/>
				<line x1="0.375000" x2="0.125000" y1="-2.092895" y2="-2.525908"/>
				<line x1="-0.125000" x2="-0.375000" y1="2.814583" y2="2.670245"/>
				<line x1="-0.125000" x2="0.125000" y1="-2.381570" y2="-2.525908"/>
				<line x1="-0.125000" x2="-0.375000" y1="2.237232" y2="2.670245"/>
				<line x1="0.625000" x2="0.125000" y1="-2.814583" y2="-2.525908"/>
				<line x1="-0.625000" x2="-0.125000" y1="2.237232" y2="2.237232"/>
				<line x1="0.625000" x2="0.375000" y1="-2.525908" y2="-2.092895"/>
				<line x1="-0.875000" x2="-0.625000" y1="2.381570" y2="2.237232"/>
				<line x1="-0.125000" x2="0.375000" y1="-2.381570" y2="-2.092895"/>
				<line x1="-0.875000" x2="-0.625000" y1="1.804220" y2="2.237232"/>
				<line x1="0.375000" x2="-0.125000" y1="-2.092895" y2="-2.092895"/>
				<line x1="-0.625000" x2="-0.375000" y1="2.237232" y2="1.804220"/>
				<line x1="-0.125000" x2="0.125000" y1="-2.092895" y2="-1.659882"/>
				<line x1="-1.375000" x2="-1.125000" y1="2.670245" y2="2.237232"/>
				<line x1="-0.125000" x2="0.125000" y1="-1.515544" y2="-1.659882"/>
				<line x1="-0.875000" x2="-1.375000" y1="2.381570" y2="2.670245"/>
				<line x1="0.125000" x2="0.375000" y1="-1.659882" y2="-2.092895"/>
				<line x1="-1.625000" x2="-1.375000" y1="2.814583" y2="2.670245"/>
				<line x1="0.625000" x2="0.375000" y1="-1.948557" y2="-2.092895"/>
				<line x1="-1.625000" x2="-1.375000" y1="2.237232" y2="2.670245"/>
				<line x1="0.875000" x2="1.125000" y1="-2.092895" y2="-2.525908"/>
				<line x1="-0.875000" x2="-1.125000" y1="2.381570" y2="2.237232"/>
				<line x1="1.375000" x2="1.125000" y1="-2.381570" y2="-2.525908"/>
				<line x1="-0.875000" x2="-1.125000" y1="1.804220" y2="2.237232"/>
				<line x1="0.625000" x2="1.125000" y1="-2.814583" y2="-2.525908"/>
				<line x1="-0.875000" x2="-0.875000" y1="2.381570" y2="1.804220"/>
				<line x1="0.125000" x2="1.125000" y1="-2.525908" y2="-2.525908"/>
				<line x1="-0.875000" x2="-0.875000" y1="1.515544" y2="1.804220"/>
				<line x1="0.625000" x2="0.625000" y1="-2.814583" y2="-2.525908"/>
				<line x1="-1.375000" x2="-0.375000" y1="1.804220" y2="1.804220"/>
				<line x1="0.625000" x2="0.625000" y1="-1.948557" y2="-2.525908"/>
				<line x1="-1.125000" x2="-1.375000" y1="2.237232" y2="1.804220"/>
				<line x1="0.625000" x2="0.875000" y1="-2.525908" y2="-2.092895"/>
				<line x1="-1.625000" x2="-1.125000" y1="1.948557" y2="2.237232"/>
				<line x1="1.375000" x2="0.875000" y1="-2.381570" y2="-2.092895"/>
				<line x1="-0.375000" x2="-0.625000" y1="1.804220" y2="1.371207"/>
				<line x1="1.375000" x2="1.125000" y1="-2.092895" y2="-1.659882"/>
				<line x1="-0.875000" x2="-0.375000" y1="1.515544" y2="1.804220"/>
				<line x1="1.375000" x2="1.125000" y1="-1.515544" y2="-1.659882"/>
				<line x1="-0.125000" x2="-0.375000" y1="1.948557" y2="1.804220"/>
				<line x1="1.125000" x2="0.875000" y1="-1.659882" y2="-2.092895"/>
				<line x1="-0.125000" x2="-0.375000" y1="1.371207" y2="1.804220"/>
				<line x1="0.625000" x2="0.875000" y1="-1.948557" y2="-2.092895"/>
				<line x1="-0.625000" x2="-0.125000" y1="1.371207" y2="1.371207"/>
				<line x1="0.375000" x2="0.125000" y1="-1.226869" y2="-1.659882"/>
				<line x1="-0.875000" x2="-0.625000" y1="1.515544" y2="1.371207"/>
				<line x1="0.625000" x2="0.125000" y1="-1.948557" y2="-1.659882"/>
				<line x1="-0.875000" x2="-0.625000" y1="0.938194" y2="1.371207"/>
				<line x1="0.625000" x2="0.375000" y1="-1.659882" y2="-1.226869"/>
				<line x1="-0.375000" x2="-0.875000" y1="0.938194" y2="0.938194"/>
				<line x1="-0.125000" x2="0.375000" y1="-1.515544" y2="-1.226869"/>
				<line x1="-0.625000" x2="-0.375000" y1="1.371207" y2="0.938194"/>
				<line x1="0.375000" x2="-0.125000" y1="-1.226869" y2="-1.226869"/>
				<line x1="-0.125000" x2="-0.625000" y1="1.082532" y2="1.371207"/>
				<line x1="-0.125000" x2="0.125000" y1="-1.226869" y2="-0.793856"/>
				<line x1="-1.375000" x2="-1.125000" y1="1.804220" y2="1.371207"/>
				<line x1="0.125000" x2="0.375000" y1="-0.793857" y2="-1.226869"/>
				<line x1="-0.875000" x2="-1.375000" y1="1.515544" y2="1.804220"/>
				<line x1="0.625000" x2="0.375000" y1="-1.082532" y2="-1.226869"/>
				<line x1="-1.625000" x2="-1.375000" y1="1.948557" y2="1.804220"/>
				<line x1="0.875000" x2="1.125000" y1="-1.226869" y2="-1.659882"/>
				<line x1="-1.625000" x2="-1.375000" y1="1.371207" y2="1.804220"/>
				<line x1="0.625000" x2="1.125000" y1="-1.948557" y2="-1.659882"/>
				<line x1="-0.875000" x2="-1.125000" y1="1.515544" y2="1.371207"/>
				<line x1="0.125000" x2="1.125000" y1="-1.659882" y2="-1.659882"/>
				<line x1="-0.875000" x2="-1.125000" y1="0.938194" y2="1.371207"/>
				<line x1="0.625000" x2="0.625000" y1="-1.948557" y2="-1.659882"/>
				<line x1="-0.875000" x2="-0.875000" y1="1.515544" y2="0.938194"/>
				<line x1="0.625000" x2="0.625000" y1="-1.082532" y2="-1.659882"/>
				<line x1="-0.875000" x2="-0.875000" y1="0.649519" y2="0.938194"/>
				<line x1="0.625000" x2="0.875000" y1="-1.659882" y2="-1.226869"/>
				<line x1="-1.375000" x2="-0.875000" y1="0.938194" y2="0.938194"/>
				<line x1="1.375000" x2="1.125000" y1="-1.226869" y2="-0.793856"/>
				<line x1="-1.125000" x2="-1.375000" y1="1.371207" y2="0.938194"/>
				<line x1="1.125000" x2="0.875000" y1="-0.793857" y2="-1.226869"/>
				<line x1="-1.625000" x2="-1.125000" y1="1.082532" y2="1.371207"/>
				<line x1="0.625000" x2="0.875000" y1="-1.082532" y2="-1.226869"/>
				<line x1="-0.375000" x2="-0.625000" y1="0.938194" y2="0.505182"/>
				<line x1="0.375000" x2="0.125000" y1="-0.360844" y2="-0.793857"/>
				<line x1="-0.875000" x2="-0.375000" y1="0.649519" y2="0.938194"/>
				<line x1="-0.125000" x2="0.125000" y1="-0.649519" y2="-0.793857"/>
				<line x1="-0.125000" x2="-0.375000" y1="1.082532" y2="0.938194"/>
				<line x1="0.625000" x2="0.125000" y1="-1.082532" y2="-0.793857"/>
				<line x1="-0.125000" x2="-0.375000" y1="0.505182" y2="0.938194"/>
				<line x1="0.625000" x2="0.375000" y1="-0.793857" y2="-0.360844"/>
				<line x1="-0.625000" x2="-0.125000" y1="0.505182" y2="0.505182"/>
				<line x1="-0.125000" x2="0.375000" y1="-0.649519" y2="-0.360844"/>
				<line x1="-0.875000" x2="-0.625000" y1="0.649519" y2="0.505182"/>
				<line x1="0.375000" x2="-0.125000" y1="-0.360844" y2="-0.360844"/>
				<line x1="-0.875000" x2="-0.625000" y1="0.072169" y2="0.505182"/>
				<line x1="-0.125000" x2="0.125000" y1="-0.360844" y2="0.072169"/>
				<line x1="-0.375000" x2="-0.875000" y1="0.072169" y2="0.072169"/>
				<line x1="0.125000" x2="0.375000" y1="0.072169" y2="-0.360844"/>
				<line x1="-0.625000" x2="-0.375000" y1="0.505182" y2="0.072169"/>
				<line x1="0.625000" x2="0.375000" y1="-0.216506" y2="-0.360844"/>
				<line x1="-0.125000" x2="-0.625000" y1="0.216506" y2="0.505182"/>
				<line x1="0.875000" x2="1.125000" y1="-0.360844" y2="-0.793857"/>
				<line x1="-1.375000" x2="-1.125000" y1="0.938194" y2="0.505182"/>
				<line x1="1.375000" x2="1.125000" y1="-0.649519" y2="-0.793857"/>
				<line x1="-0.875000" x2="-1.375000" y1="0.649519" y2="0.938194"/>
				<line x1="0.625000" x2="1.125000" y1="-1.082532" y2="-0.793857"/>
				<line x1="-1.625000" x2="-1.375000" y1="1.082532" y2="0.938194"/>
				<line x1="0.125000" x2="1.125000" y1="-0.793857" y2="-0.793857"/>
				<line x1="-1.625000" x2="-1.375000" y1="0.505182" y2="0.938194"/>
				<line x1="0.625000" x2="0.625000" y1="-1.082532" y2="-0.793857"/>
				<line x1="-0.875000" x2="-1.125000" y1="0.649519" y2="0.505182"/>
				<line x1="0.625000" x2="0.625000" y1="-0.216506" y2="-0.793857"/>
				<line x1="-0.875000" x2="-1.125000" y1="0.072169" y2="0.505182"/>
				<line x1="0.625000" x2="0.875000" y1="-0.793857" y2="-0.360844"/>
				<line x1="-0.875000" x2="-0.875000" y1="0.649519" y2="0.072169"/>
				<line x1="1.375000" x2="0.875000" y1="-0.649519" y2="-0.360844"/>
				<line x1="-0.875000" x2="-0.875000" y1="-0.216506" y2="0.072169"/>
				<line x1="1.375000" x2="1.125000" y1="-0.360844" y2="0.072169"/>
				<line x1="-1.375000" x2="-0.875000" y1="0.072169" y2="0.072169"/>
				<line x1="1.375000" x2="1.125000" y1="0.216506" y2="0.072169"/>
				<line x1="-1.125000" x2="-1.375000" y1="0.505182" y2="0.072169"/>
				<line x1="1.125000" x2="0.875000" y1="0.072169" y2="-0.360844"/>
				<line x1="-1.625000" x2="-1.125000" y1="0.216506" y2="0.505182"/>
				<line x1="0.625000" x2="0.875000" y1="-0.216506" y2="-0.360844"/>
				<line x1="-0.375000" x2="-0.625000" y1="0.072169" y2="-0.360844"/>
				<line x1="0.375000" x2="0.125000" y1="0.505182" y2="0.072169"/>
				<line x1="-0.875000" x2="-0.375000" y1="-0.216506" y2="0.072169"/>
				<line x1="-0.625000" x2="0.125000" y1="0.505182" y2="0.072169"/>
				<line x1="-0.125000" x2="-0.375000" y1="0.216506" y2="0.072169"/>
				<line x1="0.625000" x2="0.125000" y1="-0.216506" y2="0.072169"/>
				<line x1="-0.125000" x2="-0.375000" y1="-0.360844" y2="0.072169"/>
				<line x1="0.125000" x2="0.625000" y1="0.072169" y2="0.072169"/>
				<line x1="-0.125000" x2="-0.125000" y1="0.216506" y2="-0.360844"/>
				<line x1="0.625000" x2="0.375000" y1="0.072169" y2="0.505182"/>
				<line x1="-0.125000" x2="-0.125000" y1="-0.649519" y2="-0.360844"/>
				<line x1="-0.375000" x2="0.375000" y1="0.072169" y2="0.505182"/>
				<line x1="-0.625000" x2="-0.125000" y1="-0.360844" y2="-0.360844"/>
				<line x1="0.375000" x2="-0.125000" y1="0.505182" y2="0.505182"/>
				<line x1="-0.875000" x2="-0.625000" y1="-0.216506" y2="-0.360844"/>
				<line x1="-0.125000" x2="-0.125000" y1="0.216506" y2="0.505182"/>
				<line x1="-0.875000" x2="-0.625000" y1="-0.793857" y2="-0.360844"/>
				<line x1="-0.125000" x2="-0.125000" y1="1.082532" y2="0.505182"/>
				<line x1="-0.625000" x2="-0.375000" y1="-0.360844" y2="-0.793857"/>
				<line x1="-0.125000" x2="0.125000" y1="0.505182" y2="0.938194"/>
				<line x1="-0.125000" x2="-0.625000" y1="-0.649519" y2="-0.360844"/>
				<line x1="0.125000" x2="0.375000" y1="0.938194" y2="0.505182"/>
				<line x1="-1.375000" x2="-1.125000" y1="0.072169" y2="-0.360844"/>
				<line x1="0.625000" x2="0.375000" y1="0.649519" y2="0.505182"/>
				<line x1="-0.875000" x2="-1.375000" y1="-0.216506" y2="0.072169"/>
				<line x1="0.875000" x2="1.125000" y1="0.505182" y2="0.072169"/>
				<line x1="-1.625000" x2="-1.375000" y1="0.216506" y2="0.072169"/>
				<line x1="0.625000" x2="1.125000" y1="-0.216506" y2="0.072169"/>
				<line x1="-1.625000" x2="-1.375000" y1="-0.360844" y2="0.072169"/>
				<line x1="1.125000" x2="0.625000" y1="0.072169" y2="0.072169"/>
				<line x1="-0.875000" x2="-1.125000" y1="-0.216506" y2="-0.360844"/>
				<line x1="0.625000" x2="0.625000" y1="-0.216506" y2="0.072169"/>
				<line x1="-0.875000" x2="-1.125000" y1="-0.793857" y2="-0.360844"/>
				<line x1="0.625000" x2="0.625000" y1="0.649519" y2="0.072169"/>
				<line x1="-0.875000" x2="-0.875000" y1="-0.216506" y2="-0.793857"/>
				<line x1="0.625000" x2="0.875000" y1="0.072169" y2="0.505182"/>
				<line x1="-0.875000" x2="-0.875000" y1="-1.082532" y2="-0.793857"/>
				<line x1="1.375000" x2="1.125000" y1="0.505182" y2="0.938194"/>
				<line x1="-1.375000" x2="-0.375000" y1="-0.793857" y2="-0.793857"/>
				<line x1="1.125000" x2="0.875000" y1="0.938194" y2="0.505182"/>
				<line x1="-1.125000" x2="-1.375000" y1="-0.360844" y2="-0.793857"/>
				<line x1="0.625000" x2="0.875000" y1="0.649519" y2="0.505182"/>
				<line x1="-1.625000" x2="-1.125000" y1="-0.649519" y2="-0.360844"/>
				<line x1="0.375000" x2="0.125000" y1="1.371207" y2="0.938194"/>
				<line x1="-0.375000" x2="-0.625000" y1="-0.793857" y2="-1.226869"/>
				<line x1="-0.125000" x2="0.125000" y1="1.082532" y2="0.938194"/>
				<line x1="-0.875000" x2="-0.375000" y1="-1.082532" y2="-0.793857"/>
				<line x1="0.625000" x2="0.125000" y1="0.649519" y2="0.938194"/>
				<line x1="-0.125000" x2="-0.375000" y1="-0.649519" y2="-0.793856"/>
				<line x1="0.125000" x2="0.625000" y1="0.938194" y2="0.938194"/>
				<line x1="-0.125000" x2="-0.375000" y1="-1.226869" y2="-0.793856"/>
				<line x1="0.625000" x2="0.375000" y1="0.938194" y2="1.371207"/>
				<line x1="-0.125000" x2="-0.125000" y1="-0.649519" y2="-1.226869"/>
				<line x1="-0.125000" x2="0.375000" y1="1.082532" y2="1.371207"/>
				<line x1="-0.125000" x2="-0.125000" y1="-1.515544" y2="-1.226869"/>
				<line x1="0.375000" x2="-0.125000" y1="1.371207" y2="1.371207"/>
				<line x1="-0.625000" x2="-0.125000" y1="-1.226869" y2="-1.226869"/>
				<line x1="-0.125000" x2="-0.125000" y1="1.082532" y2="1.371207"/>
				<line x1="-0.875000" x2="-0.625000" y1="-1.082532" y2="-1.226869"/>
				<line x1="-0.125000" x2="-0.125000" y1="1.948557" y2="1.371207"/>
				<line x1="-0.875000" x2="-0.625000" y1="-1.659882" y2="-1.226869"/>
				<line x1="-0.125000" x2="0.125000" y1="1.371207" y2="1.804220"/>
				<line x1="-0.625000" x2="-0.375000" y1="-1.226869" y2="-1.659882"/>
				<line x1="0.125000" x2="0.375000" y1="1.804220" y2="1.371207"/>
				<line x1="-0.625000" x2="0.125000" y1="-1.226869" y2="-1.659882"/>
				<line x1="0.625000" x2="0.375000" y1="1.515544" y2="1.371207"/>
				<line x1="-1.375000" x2="-1.125000" y1="-0.793857" y2="-1.226869"/>
				<line x1="0.875000" x2="1.125000" y1="1.371207" y2="0.938194"/>
				<line x1="-0.875000" x2="-1.375000" y1="-1.082532" y2="-0.793857"/>
				<line x1="1.375000" x2="1.125000" y1="1.082532" y2="0.938194"/>
				<line x1="-1.625000" x2="-1.375000" y1="-0.649519" y2="-0.793856"/>
				<line x1="0.625000" x2="1.125000" y1="0.649519" y2="0.938194"/>
				<line x1="-1.625000" x2="-1.375000" y1="-1.226869" y2="-0.793856"/>
				<line x1="1.125000" x2="0.625000" y1="0.938194" y2="0.938194"/>
				<line x1="-0.875000" x2="-1.125000" y1="-1.082532" y2="-1.226869"/>
				<line x1="0.625000" x2="0.625000" y1="0.649519" y2="0.938194"/>
				<line x1="-0.875000" x2="-1.125000" y1="-1.659882" y2="-1.226869"/>
				<line x1="0.625000" x2="0.625000" y1="1.515544" y2="0.938194"/>
				<line x1="-0.875000" x2="-0.875000" y1="-1.082532" y2="-1.659882"/>
				<line x1="0.625000" x2="0.875000" y1="0.938194" y2="1.371207"/>
				<line x1="-0.875000" x2="-0.875000" y1="-1.948557" y2="-1.659882"/>
				<line x1="1.375000" x2="0.875000" y1="1.082532" y2="1.371207"/>
				<line x1="-1.375000" x2="-0.375000" y1="-1.659882" y2="-1.659882"/>
				<line x1="1.375000" x2="1.125000" y1="1.371207" y2="1.804220"/>
				<line x1="-1.125000" x2="-1.375000" y1="-1.226869" y2="-1.659882"/>
				<line x1="1.375000" x2="1.125000" y1="1.948557" y2="1.804220"/>
				<line x1="-1.625000" x2="-1.125000" y1="-1.515544" y2="-1.226869"/>
				<line x1="1.125000" x2="0.875000" y1="1.804220" y2="1.371207"/>
				<line x1="-0.375000" x2="-0.625000" y1="-1.659882" y2="-2.092895"/>
				<line x1="0.625000" x2="0.875000" y1="1.515544" y2="1.371207"/>
				<line x1="-0.875000" x2="-0.375000" y1="-1.948557" y2="-1.659882"/>
				<line x1="0.375000" x2="0.125000" y1="2.237232" y2="1.804220"/>
				<line x1="-0.125000" x2="-0.375000" y1="-1.515544" y2="-1.659882"/>
				<line x1="-0.625000" x2="0.125000" y1="2.237232" y2="1.804220"/>
				<line x1="-0.125000" x2="-0.375000" y1="-2.092895" y2="-1.659882"/>
				<line x1="0.625000" x2="0.125000" y1="1.515544" y2="1.804220"/>
				<line x1="-0.125000" x2="-0.125000" y1="-1.515544" y2="-2.092895"/>
				<line x1="0.625000" x2="0.375000" y1="1.804220" y2="2.237232"/>
				<line x1="-0.125000" x2="-0.125000" y1="-2.381570" y2="-2.092895"/>
				<line x1="-0.375000" x2="0.375000" y1="1.804220" y2="2.237232"/>
				<line x1="-0.625000" x2="-0.125000" y1="-2.092895" y2="-2.092895"/>
				<line x1="0.375000" x2="-0.125000" y1="2.237232" y2="2.237232"/>
				<line x1="-0.875000" x2="-0.625000" y1="-1.948557" y2="-2.092895"/>
				<line x1="-0.125000" x2="-0.125000" y1="1.948557" y2="2.237232"/>
				<line x1="-0.875000" x2="-0.625000" y1="-2.525908" y2="-2.092895"/>
				<line x1="-0.125000" x2="-0.125000" y1="2.814583" y2="2.237232"/>
				<line x1="-0.875000" x2="-0.375000" y1="-2.814583" y2="-2.525908"/>
				<line x1="-0.125000" x2="0.125000" y1="2.237232" y2="2.670245"/>
				<line x1="-0.125000" x2="-0.375000" y1="-2.381570" y2="-2.525908"/>
				<line x1="-0.125000" x2="0.125000" y1="2.814583" y2="2.670245"/>
				<line x1="-0.625000" x2="-0.375000" y1="-2.092895" y2="-2.525908"/>
				<line x1="0.625000" x2="0.125000" y1="2.381570" y2="2.670245"/>
				<line x1="-0.125000" x2="-0.625000" y1="-2.381570" y2="-2.092895"/>
				<line x1="0.125000" x2="0.375000" y1="2.670245" y2="2.237232"/>
				<line x1="-1.375000" x2="-1.125000" y1="-1.659882" y2="-2.092895"/>
				<line x1="0.625000" x2="0.375000" y1="2.381570" y2="2.237232"/>
				<line x1="-0.875000" x2="-1.375000" y1="-1.948557" y2="-1.659882"/>
				<line x1="0.875000" x2="1.125000" y1="2.237232" y2="1.804220"/>
				<line x1="-1.625000" x2="-1.375000" y1="-1.515544" y2="-1.659882"/>
				<line x1="0.625000" x2="1.125000" y1="1.515544" y2="1.804220"/>
				<line x1="-1.625000" x2="-1.375000" y1="-2.092895" y2="-1.659882"/>
				<line x1="0.125000" x2="1.125000" y1="1.804220" y2="1.804220"/>
				<line x1="-0.875000" x2="-1.125000" y1="-1.948557" y2="-2.092895"/>
				<line x1="0.625000" x2="0.625000" y1="1.515544" y2="1.804220"/>
				<line x1="-0.875000" x2="-1.125000" y1="-2.525908" y2="-2.092895"/>
				<line x1="0.625000" x2="0.625000" y1="2.381570" y2="1.804220"/>
				<line x1="-0.875000" x2="-0.875000" y1="-1.948557" y2="-2.525908"/>
				<line x1="0.625000" x2="0.875000" y1="1.804220" y2="2.237232"/>
				<line x1="-0.875000" x2="-0.875000" y1="-2.814583" y2="-2.525908"/>
				<line x1="1.375000" x2="1.125000" y1="2.237232" y2="2.670245"/>
				<line x1="-1.375000" x2="-0.375000" y1="-2.525908" y2="-2.525908"/>
				<line x1="1.375000" x2="1.125000" y1="2.814583" y2="2.670245"/>
				<line x1="-0.875000" x2="-1.375000" y1="-2.814583" y2="-2.525908"/>
				<line x1="0.625000" x2="1.125000" y1="2.381570" y2="2.670245"/>
				<line x1="-1.625000" x2="-1.375000" y1="-2.381570" y2="-2.525908"/>
				<line x1="1.125000" x2="0.875000" y1="2.670245" y2="2.237232"/>
				<line x1="-1.125000" x2="-1.375000" y1="-2.092895" y2="-2.525908"/>
				<line x1="0.625000" x2="0.875000" y1="2.381570" y2="2.237232"/>
				<line x1="-1.625000" x2="-1.125000" y1="-2.381570" y2="-2.092895"/>
				<line x1="1.875000" x2="1.625000" y1="-2.092895" y2="-2.525908"/>
				<line x1="-1.875000" x2="-2.125000" y1="2.670245" y2="2.237232"/>
				<line x1="1.375000" x2="1.625000" y1="-2.381570" y2="-2.525908"/>
				<line x1="-2.375000" x2="-1.875000" y1="2.381570" y2="2.670245"/>
				<line x1="2.125000" x2="1.625000" y1="-2.814583" y2="-2.525908"/>
				<line x1="-1.625000" x2="-1.875000" y1="2.814583" y2="2.670245"/>
				<line x1="2.125000" x2="1.875000" y1="-2.525908" y2="-2.092895"/>
				<line x1="-1.625000" x2="-1.875000" y1="2.237232" y2="2.670245"/>
				<line x1="1.375000" x2="1.875000" y1="-2.381570" y2="-2.092895"/>
				<line x1="-2.125000" x2="-1.125000" y1="2.237232" y2="2.237232"/>
				<line x1="0.875000" x2="1.875000" y1="-2.092895" y2="-2.092895"/>
				<line x1="-2.375000" x2="-2.125000" y1="2.381570" y2="2.237232"/>
				<line x1="1.375000" x2="1.625000" y1="-2.092895" y2="-1.659882"/>
				<line x1="-2.375000" x2="-2.125000" y1="1.804220" y2="2.237232"/>
				<line x1="1.625000" x2="1.875000" y1="-1.659882" y2="-2.092895"/>
				<line x1="-2.125000" x2="-1.875000" y1="2.237232" y2="1.804220"/>
				<line x1="2.125000" x2="1.875000" y1="-1.948557" y2="-2.092895"/>
				<line x1="-2.125000" x2="-1.375000" y1="2.237232" y2="1.804220"/>
				<line x1="2.375000" x2="2.625000" y1="-2.092895" y2="-2.525908"/>
				<line x1="-2.875000" x2="-2.625000" y1="2.670245" y2="2.237232"/>
				<line x1="2.875000" x2="2.625000" y1="-2.381570" y2="-2.525908"/>
				<line x1="-2.375000" x2="-2.875000" y1="2.381570" y2="2.670245"/>
				<line x1="2.125000" x2="2.625000" y1="-2.814583" y2="-2.525908"/>
				<line x1="-3.125000" x2="-2.875000" y1="2.814583" y2="2.670245"/>
				<line x1="1.625000" x2="2.625000" y1="-2.525908" y2="-2.525908"/>
				<line x1="-3.125000" x2="-2.875000" y1="2.237232" y2="2.670245"/>
				<line x1="2.875000" x2="2.375000" y1="-2.381570" y2="-2.092895"/>
				<line x1="-2.375000" x2="-2.625000" y1="2.381570" y2="2.237232"/>
				<line x1="2.875000" x2="2.625000" y1="-2.092895" y2="-1.659882"/>
				<line x1="-2.375000" x2="-2.625000" y1="1.804220" y2="2.237232"/>
				<line x1="2.125000" x2="2.625000" y1="-2.525908" y2="-1.659882"/>
				<line x1="-2.875000" x2="-1.875000" y1="1.804220" y2="1.804220"/>
				<line x1="2.125000" x2="2.375000" y1="-1.948557" y2="-2.092895"/>
				<line x1="-2.625000" x2="-2.875000" y1="2.237232" y2="1.804220"/>
				<line x1="1.875000" x2="1.625000" y1="-1.226869" y2="-1.659882"/>
				<line x1="-3.125000" x2="-2.625000" y1="1.948557" y2="2.237232"/>
				<line x1="0.875000" x2="1.625000" y1="-1.226869" y2="-1.659882"/>
				<line x1="-1.875000" x2="-2.125000" y1="1.804220" y2="1.371207"/>
				<line x1="2.125000" x2="1.625000" y1="-1.948557" y2="-1.659882"/>
				<line x1="-2.375000" x2="-1.875000" y1="1.515544" y2="1.804220"/>
				<line x1="2.125000" x2="1.875000" y1="-1.659882" y2="-1.226869"/>
				<line x1="-1.625000" x2="-1.875000" y1="1.948557" y2="1.804220"/>
				<line x1="1.125000" x2="1.875000" y1="-1.659882" y2="-1.226869"/>
				<line x1="-1.625000" x2="-1.875000" y1="1.371207" y2="1.804220"/>
				<line x1="0.875000" x2="1.875000" y1="-1.226869" y2="-1.226869"/>
				<line x1="-2.125000" x2="-1.125000" y1="1.371207" y2="1.371207"/>
				<line x1="1.375000" x2="1.625000" y1="-1.226869" y2="-0.793856"/>
				<line x1="-2.375000" x2="-2.125000" y1="1.515544" y2="1.371207"/>
				<line x1="1.625000" x2="1.875000" y1="-0.793857" y2="-1.226869"/>
				<line x1="-2.375000" x2="-2.125000" y1="0.938194" y2="1.371207"/>
				<line x1="2.125000" x2="1.875000" y1="-1.082532" y2="-1.226869"/>
				<line x1="-1.875000" x2="-2.375000" y1="0.938194" y2="0.938194"/>
				<line x1="2.375000" x2="2.625000" y1="-1.226869" y2="-1.659882"/>
				<line x1="-2.125000" x2="-1.875000" y1="1.371207" y2="0.938194"/>
				<line x1="2.125000" x2="2.625000" y1="-1.948557" y2="-1.659882"/>
				<line x1="-1.625000" x2="-2.125000" y1="1.082532" y2="1.371207"/>
				<line x1="1.625000" x2="2.625000" y1="-1.659882" y2="-1.659882"/>
				<line x1="-2.375000" x2="-2.875000" y1="1.515544" y2="1.804220"/>
				<line x1="2.125000" x2="2.375000" y1="-1.659882" y2="-1.226869"/>
				<line x1="-3.125000" x2="-2.875000" y1="1.948557" y2="1.804220"/>
				<line x1="2.875000" x2="2.625000" y1="-1.226869" y2="-0.793856"/>
				<line x1="-3.125000" x2="-2.875000" y1="1.371207" y2="1.804220"/>
				<line x1="2.625000" x2="2.375000" y1="-0.793857" y2="-1.226869"/>
				<line x1="-2.375000" x2="-2.625000" y1="1.515544" y2="1.371207"/>
				<line x1="2.125000" x2="2.375000" y1="-1.082532" y2="-1.226869"/>
				<line x1="-2.875000" x2="-2.375000" y1="1.804220" y2="0.938194"/>
				<line x1="1.875000" x2="1.625000" y1="-0.360844" y2="-0.793857"/>
				<line x1="-2.875000" x2="-2.375000" y1="0.938194" y2="0.938194"/>
				<line x1="1.375000" x2="1.625000" y1="-0.649519" y2="-0.793857"/>
				<line x1="-2.625000" x2="-2.875000" y1="1.371207" y2="0.938194"/>
				<line x1="2.125000" x2="1.625000" y1="-1.082532" y2="-0.793857"/>
				<line x1="-3.125000" x2="-2.625000" y1="1.082532" y2="1.371207"/>
				<line x1="2.125000" x2="1.875000" y1="-0.793857" y2="-0.360844"/>
				<line x1="-1.875000" x2="-2.125000" y1="0.938194" y2="0.505182"/>
				<line x1="1.375000" x2="1.875000" y1="-0.649519" y2="-0.360844"/>
				<line x1="-2.375000" x2="-1.875000" y1="0.649519" y2="0.938194"/>
				<line x1="0.875000" x2="1.875000" y1="-0.360844" y2="-0.360844"/>
				<line x1="-1.625000" x2="-1.875000" y1="1.082532" y2="0.938194"/>
				<line x1="1.375000" x2="1.625000" y1="-0.360844" y2="0.072169"/>
				<line x1="-1.625000" x2="-1.875000" y1="0.505182" y2="0.938194"/>
				<line x1="1.375000" x2="1.625000" y1="0.216506" y2="0.072169"/>
				<line x1="-2.125000" x2="-1.125000" y1="0.505182" y2="0.505182"/>
				<line x1="2.125000" x2="1.625000" y1="-0.216506" y2="0.072169"/>
				<line x1="-2.375000" x2="-2.125000" y1="0.649519" y2="0.505182"/>
				<line x1="1.625000" x2="1.875000" y1="0.072169" y2="-0.360844"/>
				<line x1="-2.375000" x2="-2.125000" y1="0.072169" y2="0.505182"/>
				<line x1="2.125000" x2="1.875000" y1="-0.216506" y2="-0.360844"/>
				<line x1="-1.875000" x2="-2.375000" y1="0.072169" y2="0.072169"/>
				<line x1="2.375000" x2="2.625000" y1="-0.360844" y2="-0.793857"/>
				<line x1="-2.125000" x2="-1.875000" y1="0.505182" y2="0.072169"/>
				<line x1="2.875000" x2="2.625000" y1="-0.649519" y2="-0.793857"/>
				<line x1="-2.125000" x2="-1.375000" y1="0.505182" y2="0.072169"/>
				<line x1="2.125000" x2="2.625000" y1="-1.082532" y2="-0.793857"/>
				<line x1="-2.875000" x2="-2.625000" y1="0.938194" y2="0.505182"/>
				<line x1="1.625000" x2="2.625000" y1="-0.793857" y2="-0.793857"/>
				<line x1="-2.375000" x2="-2.875000" y1="0.649519" y2="0.938194"/>
				<line x1="2.125000" x2="2.125000" y1="-2.814583" y2="-0.793857"/>
				<line x1="-3.125000" x2="-2.875000" y1="1.082532" y2="0.938194"/>
				<line x1="2.125000" x2="2.375000" y1="-0.793857" y2="-0.360844"/>
				<line x1="-3.125000" x2="-2.875000" y1="0.505182" y2="0.938194"/>
				<line x1="2.875000" x2="2.375000" y1="-0.649519" y2="-0.360844"/>
				<line x1="-2.375000" x2="-2.625000" y1="0.649519" y2="0.505182"/>
				<line x1="2.875000" x2="2.625000" y1="-0.360844" y2="0.072169"/>
				<line x1="-2.375000" x2="-2.625000" y1="0.072169" y2="0.505182"/>
				<line x1="2.875000" x2="2.625000" y1="0.216506" y2="0.072169"/>
				<line x1="-2.375000" x2="-2.375000" y1="0.072169" y2="2.381570"/>
				<line x1="2.625000" x2="2.375000" y1="0.072169" y2="-0.360844"/>
				<line x1="-2.875000" x2="-2.375000" y1="0.072169" y2="0.072169"/>
				<line x1="2.125000" x2="2.375000" y1="-0.216506" y2="-0.360844"/>
				<line x1="-2.625000" x2="-2.875000" y1="0.505182" y2="0.072169"/>
				<line x1="1.875000" x2="1.625000" y1="0.505182" y2="0.072169"/>
				<line x1="-3.125000" x2="-2.625000" y1="0.216506" y2="0.505182"/>
				<line x1="0.875000" x2="2.125000" y1="0.505182" y2="-0.216506"/>
				<line x1="-1.875000" x2="-2.125000" y1="0.072169" y2="-0.360844"/>
				<line x1="1.625000" x2="2.125000" y1="0.072169" y2="0.072169"/>
				<line x1="-2.375000" x2="-1.875000" y1="-0.216506" y2="0.072169"/>
				<line x1="2.125000" x2="1.875000" y1="0.072169" y2="0.505182"/>
				<line x1="-1.625000" x2="-1.875000" y1="0.216506" y2="0.072169"/>
				<line x1="1.125000" x2="1.875000" y1="0.072169" y2="0.505182"/>
				<line x1="-1.625000" x2="-1.875000" y1="-0.360844" y2="0.072169"/>
				<line x1="0.875000" x2="1.875000" y1="0.505182" y2="0.505182"/>
				<line x1="-2.125000" x2="-1.125000" y1="-0.360844" y2="-0.360844"/>
				<line x1="1.375000" x2="1.625000" y1="0.505182" y2="0.938194"/>
				<line x1="-2.375000" x2="-2.125000" y1="-0.216506" y2="-0.360844"/>
				<line x1="1.625000" x2="1.875000" y1="0.938194" y2="0.505182"/>
				<line x1="-2.375000" x2="-2.125000" y1="-0.793857" y2="-0.360844"/>
				<line x1="2.125000" x2="1.875000" y1="0.649519" y2="0.505182"/>
				<line x1="-2.125000" x2="-1.875000" y1="-0.360844" y2="-0.793857"/>
				<line x1="2.375000" x2="2.625000" y1="0.505182" y2="0.072169"/>
				<line x1="-1.625000" x2="-2.125000" y1="-0.649519" y2="-0.360844"/>
				<line x1="2.125000" x2="2.625000" y1="-0.216506" y2="0.072169"/>
				<line x1="-2.875000" x2="-2.625000" y1="0.072169" y2="-0.360844"/>
				<line x1="2.625000" x2="2.125000" y1="0.072169" y2="0.072169"/>
				<line x1="-2.375000" x2="-2.875000" y1="-0.216506" y2="0.072169"/>
				<line x1="2.125000" x2="2.125000" y1="-0.793857" y2="0.072169"/>
				<line x1="-3.125000" x2="-2.875000" y1="0.216506" y2="0.072169"/>
				<line x1="2.125000" x2="2.375000" y1="0.072169" y2="0.505182"/>
				<line x1="-3.125000" x2="-2.875000" y1="-0.360844" y2="0.072169"/>
				<line x1="2.875000" x2="2.625000" y1="0.505182" y2="0.938194"/>
				<line x1="-2.375000" x2="-2.625000" y1="-0.216506" y2="-0.360844"/>
				<line x1="2.625000" x2="2.375000" y1="0.938194" y2="0.505182"/>
				<line x1="-2.375000" x2="-2.625000" y1="-0.793857" y2="-0.360844"/>
				<line x1="2.125000" x2="2.375000" y1="0.649519" y2="0.505182"/>
				<line x1="-2.375000" x2="-2.375000" y1="-0.793857" y2="0.072169"/>
				<line x1="1.875000" x2="1.625000" y1="1.371207" y2="0.938194"/>
				<line x1="-2.875000" x2="-1.875000" y1="-0.793857" y2="-0.793857"/>
				<line x1="1.375000" x2="1.625000" y1="1.082532" y2="0.938194"/>
				<line x1="-2.625000" x2="-2.875000" y1="-0.360844" y2="-0.793857"/>
				<line x1="2.125000" x2="1.625000" y1="0.649519" y2="0.938194"/>
				<line x1="-3.125000" x2="-2.625000" y1="-0.649519" y2="-0.360844"/>
				<line x1="1.625000" x2="2.125000" y1="0.938194" y2="0.938194"/>
				<line x1="-1.875000" x2="-2.125000" y1="-0.793857" y2="-1.226869"/>
				<line x1="2.125000" x2="1.875000" y1="0.938194" y2="1.371207"/>
				<line x1="-2.375000" x2="-1.875000" y1="-1.082532" y2="-0.793857"/>
				<line x1="1.375000" x2="1.875000" y1="1.082532" y2="1.371207"/>
				<line x1="-1.625000" x2="-1.875000" y1="-0.649519" y2="-0.793856"/>
				<line x1="0.875000" x2="1.875000" y1="1.371207" y2="1.371207"/>
				<line x1="-1.625000" x2="-1.875000" y1="-1.226869" y2="-0.793856"/>
				<line x1="1.375000" x2="1.625000" y1="1.371207" y2="1.804220"/>
				<line x1="-2.125000" x2="-1.125000" y1="-1.226869" y2="-1.226869"/>
				<line x1="1.625000" x2="1.875000" y1="1.804220" y2="1.371207"/>
				<line x1="-2.375000" x2="-2.125000" y1="-1.082532" y2="-1.226869"/>
				<line x1="2.125000" x2="1.875000" y1="1.515544" y2="1.371207"/>
				<line x1="-2.375000" x2="-2.125000" y1="-1.659882" y2="-1.226869"/>
				<line x1="2.375000" x2="2.625000" y1="1.371207" y2="0.938194"/>
				<line x1="-2.125000" x2="-1.875000" y1="-1.226869" y2="-1.659882"/>
				<line x1="2.875000" x2="2.625000" y1="1.082532" y2="0.938194"/>
				<line x1="-2.125000" x2="-1.375000" y1="-1.226869" y2="-1.659882"/>
				<line x1="2.125000" x2="2.625000" y1="0.649519" y2="0.938194"/>
				<line x1="-2.875000" x2="-2.625000" y1="-0.793857" y2="-1.226869"/>
				<line x1="2.625000" x2="2.125000" y1="0.938194" y2="0.938194"/>
				<line x1="-2.375000" x2="-2.875000" y1="-1.082532" y2="-0.793857"/>
				<line x1="2.875000" x2="2.375000" y1="1.082532" y2="1.371207"/>
				<line x1="-3.125000" x2="-2.875000" y1="-0.649519" y2="-0.793856"/>
				<line x1="2.875000" x2="2.625000" y1="1.371207" y2="1.804220"/>
				<line x1="-3.125000" x2="-2.875000" y1="-1.226869" y2="-0.793856"/>
				<line x1="2.875000" x2="2.625000" y1="1.948557" y2="1.804220"/>
				<line x1="-2.375000" x2="-2.625000" y1="-1.082532" y2="-1.226869"/>
				<line x1="2.125000" x2="2.625000" y1="0.938194" y2="1.804220"/>
				<line x1="-2.375000" x2="-2.625000" y1="-1.659882" y2="-1.226869"/>
				<line x1="2.125000" x2="2.375000" y1="1.515544" y2="1.371207"/>
				<line x1="-2.875000" x2="-1.875000" y1="-1.659882" y2="-1.659882"/>
				<line x1="1.875000" x2="1.625000" y1="2.237232" y2="1.804220"/>
				<line x1="-2.625000" x2="-2.875000" y1="-1.226869" y2="-1.659882"/>
				<line x1="0.875000" x2="1.625000" y1="2.237232" y2="1.804220"/>
				<line x1="-1.875000" x2="-2.125000" y1="-1.659882" y2="-2.092895"/>
				<line x1="2.125000" x2="1.625000" y1="1.515544" y2="1.804220"/>
				<line x1="-2.375000" x2="-1.875000" y1="-1.948557" y2="-1.659882"/>
				<line x1="2.125000" x2="1.875000" y1="1.804220" y2="2.237232"/>
				<line x1="-1.625000" x2="-1.875000" y1="-1.515544" y2="-1.659882"/>
				<line x1="1.125000" x2="1.875000" y1="1.804220" y2="2.237232"/>
				<line x1="-1.625000" x2="-1.875000" y1="-2.092895" y2="-1.659882"/>
				<line x1="0.875000" x2="1.875000" y1="2.237232" y2="2.237232"/>
				<line x1="-1.625000" x2="-1.625000" y1="-2.381570" y2="2.814583"/>
				<line x1="1.375000" x2="1.375000" y1="-2.381570" y2="2.814583"/>
				<line x1="-2.125000" x2="-1.125000" y1="-2.092895" y2="-2.092895"/>
				<line x1="1.375000" x2="1.625000" y1="2.237232" y2="2.670245"/>
				<line x1="-2.375000" x2="-2.125000" y1="-1.948557" y2="-2.092895"/>
				<line x1="1.375000" x2="1.625000" y1="2.814583" y2="2.670245"/>
				<line x1="-2.375000" x2="-2.125000" y1="-2.525908" y2="-2.092895"/>
				<line x1="2.125000" x2="1.625000" y1="2.381570" y2="2.670245"/>
				<line x1="-2.375000" x2="-1.875000" y1="-2.814583" y2="-2.525908"/>
				<line x1="1.625000" x2="1.875000" y1="2.670245" y2="2.237232"/>
				<line x1="-1.625000" x2="-1.875000" y1="-2.381570" y2="-2.525908"/>
				<line x1="2.125000" x2="1.875000" y1="2.381570" y2="2.237232"/>
				<line x1="-2.125000" x2="-1.875000" y1="-2.092895" y2="-2.525908"/>
				<line x1="2.375000" x2="2.625000" y1="2.237232" y2="1.804220"/>
				<line x1="-1.625000" x2="-2.125000" y1="-2.381570" y2="-2.092895"/>
				<line x1="2.125000" x2="2.625000" y1="1.515544" y2="1.804220"/>
				<line x1="-2.375000" x2="-2.875000" y1="-1.948557" y2="-1.659882"/>
				<line x1="1.625000" x2="2.625000" y1="1.804220" y2="1.804220"/>
				<line x1="-3.125000" x2="-2.875000" y1="-2.092895" y2="-1.659882"/>
				<line x1="2.125000" x2="2.125000" y1="0.072169" y2="2.381570"/>
				<line x1="-2.375000" x2="-2.625000" y1="-1.948557" y2="-2.092895"/>
				<line x1="2.125000" x2="2.375000" y1="1.804220" y2="2.237232"/>
				<line x1="-2.875000" x2="-2.375000" y1="-1.659882" y2="-2.525908"/>
				<line x1="2.875000" x2="2.625000" y1="2.237232" y2="2.670245"/>
				<line x1="-2.375000" x2="-2.375000" y1="-2.814583" y2="-0.793857"/>
				<line x1="2.875000" x2="2.625000" y1="2.814583" y2="2.670245"/>
				<line x1="-2.875000" x2="-1.875000" y1="-2.525908" y2="-2.525908"/>
				<line x1="2.125000" x2="2.625000" y1="2.381570" y2="2.670245"/>
				<line x1="-2.375000" x2="-2.875000" y1="-2.814583" y2="-2.525908"/>
				<line x1="2.625000" x2="2.375000" y1="2.670245" y2="2.237232"/>
				<line x1="-3.125000" x2="-2.875000" y1="-2.381570" y2="-2.525908"/>
				<line x1="2.125000" x2="2.375000" y1="2.381570" y2="2.237232"/>
				<line x1="-2.625000" x2="-2.875000" y1="-2.092895" y2="-2.525908"/>
				<line x1="3.375000" x2="3.125000" y1="-2.092895" y2="-2.525908"/>
				<line x1="-3.125000" x2="-2.625000" y1="-2.381570" y2="-2.092895"/>
				<line x1="2.875000" x2="3.125000" y1="-2.381570" y2="-2.525908"/>
				<line x1="-3.375000" x2="-3.625000" y1="2.670245" y2="2.237232"/>
				<line x1="3.625000" x2="3.125000" y1="-2.814583" y2="-2.525908"/>
				<line x1="-3.875000" x2="-3.375000" y1="2.381570" y2="2.670245"/>
				<line x1="2.875000" x2="3.375000" y1="-2.381570" y2="-2.092895"/>
				<line x1="-3.125000" x2="-3.375000" y1="2.814583" y2="2.670245"/>
				<line x1="2.375000" x2="3.375000" y1="-2.092895" y2="-2.092895"/>
				<line x1="-3.125000" x2="-3.375000" y1="2.237232" y2="2.670245"/>
				<line x1="2.875000" x2="3.125000" y1="-2.092895" y2="-1.659882"/>
				<line x1="-3.625000" x2="-2.625000" y1="2.237232" y2="2.237232"/>
				<line x1="3.125000" x2="3.625000" y1="-1.659882" y2="-2.525908"/>
				<line x1="-3.875000" x2="-3.625000" y1="2.381570" y2="2.237232"/>
				<line x1="3.625000" x2="3.375000" y1="-1.948557" y2="-2.092895"/>
				<line x1="-3.875000" x2="-3.625000" y1="1.804220" y2="2.237232"/>
				<line x1="3.875000" x2="4.125000" y1="-2.092895" y2="-2.525908"/>
				<line x1="-3.625000" x2="-3.375000" y1="2.237232" y2="1.804220"/>
				<line x1="4.375000" x2="4.125000" y1="-2.381570" y2="-2.525908"/>
				<line x1="-3.625000" x2="-2.875000" y1="2.237232" y2="1.804220"/>
				<line x1="3.625000" x2="4.125000" y1="-2.814583" y2="-2.525908"/>
				<line x1="-4.375000" x2="-4.125000" y1="2.670245" y2="2.237232"/>
				<line x1="3.125000" x2="4.125000" y1="-2.525908" y2="-2.525908"/>
				<line x1="-3.875000" x2="-4.375000" y1="2.381570" y2="2.670245"/>
				<line x1="4.375000" x2="3.875000" y1="-2.381570" y2="-2.092895"/>
				<line x1="-4.625000" x2="-4.375000" y1="2.814583" y2="2.670245"/>
				<line x1="3.875000" x2="4.375000" y1="-2.092895" y2="-2.092895"/>
				<line x1="-4.625000" x2="-4.375000" y1="2.237232" y2="2.670245"/>
				<line x1="4.375000" x2="4.125000" y1="-2.092895" y2="-1.659882"/>
				<line x1="-4.125000" x2="-4.625000" y1="2.237232" y2="2.237232"/>
				<line x1="3.625000" x2="4.125000" y1="-2.525908" y2="-1.659882"/>
				<line x1="-3.875000" x2="-4.125000" y1="2.381570" y2="2.237232"/>
				<line x1="3.625000" x2="3.875000" y1="-1.948557" y2="-2.092895"/>
				<line x1="-3.875000" x2="-4.125000" y1="1.804220" y2="2.237232"/>
				<line x1="3.375000" x2="3.125000" y1="-1.226869" y2="-1.659882"/>
				<line x1="-4.375000" x2="-3.375000" y1="1.804220" y2="1.804220"/>
				<line x1="2.375000" x2="3.125000" y1="-1.226869" y2="-1.659882"/>
				<line x1="-4.125000" x2="-4.375000" y1="2.237232" y2="1.804220"/>
				<line x1="3.625000" x2="3.125000" y1="-1.948557" y2="-1.659882"/>
				<line x1="-4.625000" x2="-4.125000" y1="1.948557" y2="2.237232"/>
				<line x1="3.625000" x2="3.375000" y1="-1.659882" y2="-1.226869"/>
				<line x1="-3.875000" x2="-3.375000" y1="1.515544" y2="1.804220"/>
				<line x1="2.625000" x2="3.375000" y1="-1.659882" y2="-1.226869"/>
				<line x1="-3.125000" x2="-3.375000" y1="1.948557" y2="1.804220"/>
				<line x1="2.375000" x2="3.375000" y1="-1.226869" y2="-1.226869"/>
				<line x1="-3.125000" x2="-3.375000" y1="1.371207" y2="1.804220"/>
				<line x1="2.875000" x2="3.125000" y1="-1.226869" y2="-0.793856"/>
				<line x1="-3.625000" x2="-2.625000" y1="1.371207" y2="1.371207"/>
				<line x1="3.125000" x2="3.375000" y1="-0.793857" y2="-1.226869"/>
				<line x1="-3.875000" x2="-3.625000" y1="1.515544" y2="1.371207"/>
				<line x1="3.625000" x2="3.375000" y1="-1.082532" y2="-1.226869"/>
				<line x1="-3.875000" x2="-3.375000" y1="0.938194" y2="1.804220"/>
				<line x1="3.875000" x2="4.125000" y1="-1.226869" y2="-1.659882"/>
				<line x1="-3.375000" x2="-3.875000" y1="0.938194" y2="0.938194"/>
				<line x1="4.375000" x2="4.125000" y1="-1.515544" y2="-1.659882"/>
				<line x1="-3.625000" x2="-3.375000" y1="1.371207" y2="0.938194"/>
				<line x1="3.625000" x2="4.125000" y1="-1.948557" y2="-1.659882"/>
				<line x1="-3.125000" x2="-3.625000" y1="1.082532" y2="1.371207"/>
				<line x1="3.125000" x2="4.125000" y1="-1.659882" y2="-1.659882"/>
				<line x1="-3.875000" x2="-4.375000" y1="1.515544" y2="1.804220"/>
				<line x1="3.625000" x2="3.875000" y1="-1.659882" y2="-1.226869"/>
				<line x1="-4.625000" x2="-4.375000" y1="1.948557" y2="1.804220"/>
				<line x1="4.375000" x2="3.875000" y1="-1.515544" y2="-1.226869"/>
				<line x1="-4.625000" x2="-4.375000" y1="1.371207" y2="1.804220"/>
				<line x1="3.875000" x2="4.375000" y1="-1.226869" y2="-1.226869"/>
				<line x1="-4.125000" x2="-4.625000" y1="1.371207" y2="1.371207"/>
				<line x1="4.375000" x2="4.125000" y1="-1.226869" y2="-0.793856"/>
				<line x1="-3.875000" x2="-4.125000" y1="1.515544" y2="1.371207"/>
				<line x1="4.125000" x2="3.875000" y1="-0.793857" y2="-1.226869"/>
				<line x1="-4.375000" x2="-3.875000" y1="1.804220" y2="0.938194"/>
				<line x1="3.625000" x2="3.875000" y1="-1.082532" y2="-1.226869"/>
				<line x1="-4.375000" x2="-3.875000" y1="0.938194" y2="0.938194"/>
				<line x1="3.375000" x2="3.125000" y1="-0.360844" y2="-0.793857"/>
				<line x1="-4.125000" x2="-4.375000" y1="1.371207" y2="0.938194"/>
				<line x1="2.875000" x2="3.125000" y1="-0.649519" y2="-0.793857"/>
				<line x1="-4.625000" x2="-4.125000" y1="1.082532" y2="1.371207"/>
				<line x1="3.625000" x2="3.125000" y1="-1.082532" y2="-0.793857"/>
				<line x1="-3.375000" x2="-3.625000" y1="0.938194" y2="0.505182"/>
				<line x1="3.625000" x2="3.375000" y1="-0.793857" y2="-0.360844"/>
				<line x1="-3.875000" x2="-3.375000" y1="0.649519" y2="0.938194"/>
				<line x1="2.875000" x2="3.375000" y1="-0.649519" y2="-0.360844"/>
				<line x1="-3.125000" x2="-3.375000" y1="1.082532" y2="0.938194"/>
				<line x1="2.375000" x2="3.375000" y1="-0.360844" y2="-0.360844"/>
				<line x1="-3.125000" x2="-3.375000" y1="0.505182" y2="0.938194"/>
				<line x1="2.875000" x2="3.125000" y1="-0.360844" y2="0.072169"/>
				<line x1="-3.625000" x2="-2.625000" y1="0.505182" y2="0.505182"/>
				<line x1="2.875000" x2="3.125000" y1="0.216506" y2="0.072169"/>
				<line x1="-3.875000" x2="-3.625000" y1="0.649519" y2="0.505182"/>
				<line x1="3.625000" x2="3.125000" y1="-0.216506" y2="0.072169"/>
				<line x1="-3.875000" x2="-3.625000" y1="0.072169" y2="0.505182"/>
				<line x1="3.125000" x2="3.375000" y1="0.072169" y2="-0.360844"/>
				<line x1="-3.375000" x2="-3.875000" y1="0.072169" y2="0.072169"/>
				<line x1="3.625000" x2="3.375000" y1="-0.216506" y2="-0.360844"/>
				<line x1="-3.625000" x2="-3.375000" y1="0.505182" y2="0.072169"/>
				<line x1="3.875000" x2="4.125000" y1="-0.360844" y2="-0.793857"/>
				<line x1="-3.625000" x2="-2.875000" y1="0.505182" y2="0.072169"/>
				<line x1="4.375000" x2="4.125000" y1="-0.649519" y2="-0.793857"/>
				<line x1="-4.375000" x2="-4.125000" y1="0.938194" y2="0.505182"/>
				<line x1="3.625000" x2="4.125000" y1="-1.082532" y2="-0.793857"/>
				<line x1="-3.875000" x2="-4.375000" y1="0.649519" y2="0.938194"/>
				<line x1="3.125000" x2="4.125000" y1="-0.793857" y2="-0.793857"/>
				<line x1="-4.625000" x2="-4.375000" y1="1.082532" y2="0.938194"/>
				<line x1="3.625000" x2="3.625000" y1="-2.814583" y2="-0.793857"/>
				<line x1="-4.625000" x2="-4.375000" y1="0.505182" y2="0.938194"/>
				<line x1="3.625000" x2="3.875000" y1="-0.793857" y2="-0.360844"/>
				<line x1="-4.125000" x2="-4.625000" y1="0.505182" y2="0.505182"/>
				<line x1="4.375000" x2="3.875000" y1="-0.649519" y2="-0.360844"/>
				<line x1="-3.875000" x2="-4.125000" y1="0.649519" y2="0.505182"/>
				<line x1="3.875000" x2="4.375000" y1="-0.360844" y2="-0.360844"/>
				<line x1="-3.875000" x2="-4.125000" y1="0.072169" y2="0.505182"/>
				<line x1="4.375000" x2="4.125000" y1="-0.360844" y2="0.072169"/>
				<line x1="-3.875000" x2="-3.875000" y1="0.072169" y2="2.381570"/>
				<line x1="4.125000" x2="3.875000" y1="0.072169" y2="-0.360844"/>
				<line x1="-4.375000" x2="-3.875000" y1="0.072169" y2="0.072169"/>
				<line x1="3.625000" x2="3.875000" y1="-0.216506" y2="-0.360844"/>
				<line x1="-4.125000" x2="-4.375000" y1="0.505182" y2="0.072169"/>
				<line x1="3.375000" x2="3.125000" y1="0.505182" y2="0.072169"/>
				<line x1="-4.625000" x2="-4.125000" y1="0.216506" y2="0.505182"/>
				<line x1="2.375000" x2="3.625000" y1="0.505182" y2="-0.216506"/>
				<line x1="-3.375000" x2="-3.625000" y1="0.072169" y2="-0.360844"/>
				<line x1="3.125000" x2="3.625000" y1="0.072169" y2="0.072169"/>
				<line x1="-3.875000" x2="-3.375000" y1="-0.216506" y2="0.072169"/>
				<line x1="3.625000" x2="3.375000" y1="0.072169" y2="0.505182"/>
				<line x1="-3.125000" x2="-3.375000" y1="0.216506" y2="0.072169"/>
				<line x1="2.625000" x2="3.375000" y1="0.072169" y2="0.505182"/>
				<line x1="-3.125000" x2="-3.375000" y1="-0.360844" y2="0.072169"/>
				<line x1="2.375000" x2="3.375000" y1="0.505182" y2="0.505182"/>
				<line x1="-3.625000" x2="-2.625000" y1="-0.360844" y2="-0.360844"/>
				<line x1="2.875000" x2="3.125000" y1="0.505182" y2="0.938194"/>
				<line x1="-3.875000" x2="-3.625000" y1="-0.216506" y2="-0.360844"/>
				<line x1="3.125000" x2="3.375000" y1="0.938194" y2="0.505182"/>
				<line x1="-3.875000" x2="-3.625000" y1="-0.793857" y2="-0.360844"/>
				<line x1="3.625000" x2="3.375000" y1="0.649519" y2="0.505182"/>
				<line x1="-3.625000" x2="-3.375000" y1="-0.360844" y2="-0.793857"/>
				<line x1="3.875000" x2="4.125000" y1="0.505182" y2="0.072169"/>
				<line x1="-3.125000" x2="-3.625000" y1="-0.649519" y2="-0.360844"/>
				<line x1="4.375000" x2="4.125000" y1="0.216506" y2="0.072169"/>
				<line x1="-4.375000" x2="-4.125000" y1="0.072169" y2="-0.360844"/>
				<line x1="3.625000" x2="4.125000" y1="-0.216506" y2="0.072169"/>
				<line x1="-3.875000" x2="-4.375000" y1="-0.216506" y2="0.072169"/>
				<line x1="4.125000" x2="3.625000" y1="0.072169" y2="0.072169"/>
				<line x1="-4.625000" x2="-4.375000" y1="0.216506" y2="0.072169"/>
				<line x1="3.625000" x2="3.625000" y1="-0.793857" y2="0.072169"/>
				<line x1="-4.625000" x2="-4.375000" y1="-0.360844" y2="0.072169"/>
				<line x1="3.625000" x2="3.875000" y1="0.072169" y2="0.505182"/>
				<line x1="-4.125000" x2="-4.625000" y1="-0.360844" y2="-0.360844"/>
				<line x1="4.375000" x2="3.875000" y1="0.216506" y2="0.505182"/>
				<line x1="-3.875000" x2="-4.125000" y1="-0.216506" y2="-0.360844"/>
				<line x1="3.875000" x2="4.375000" y1="0.505182" y2="0.505182"/>
				<line x1="-3.875000" x2="-4.125000" y1="-0.793857" y2="-0.360844"/>
				<line x1="4.375000" x2="4.125000" y1="0.505182" y2="0.938194"/>
				<line x1="-3.875000" x2="-3.875000" y1="-0.793857" y2="0.072169"/>
				<line x1="4.125000" x2="3.875000" y1="0.938194" y2="0.505182"/>
				<line x1="-4.375000" x2="-3.375000" y1="-0.793857" y2="-0.793857"/>
				<line x1="3.625000" x2="3.875000" y1="0.649519" y2="0.505182"/>
				<line x1="-4.125000" x2="-4.375000" y1="-0.360844" y2="-0.793857"/>
				<line x1="3.375000" x2="3.125000" y1="1.371207" y2="0.938194"/>
				<line x1="-4.625000" x2="-4.125000" y1="-0.649519" y2="-0.360844"/>
				<line x1="2.875000" x2="3.125000" y1="1.082532" y2="0.938194"/>
				<line x1="-3.375000" x2="-3.625000" y1="-0.793857" y2="-1.226869"/>
				<line x1="3.625000" x2="3.125000" y1="0.649519" y2="0.938194"/>
				<line x1="-3.875000" x2="-3.375000" y1="-1.082532" y2="-0.793857"/>
				<line x1="3.125000" x2="3.625000" y1="0.938194" y2="0.938194"/>
				<line x1="-3.125000" x2="-3.375000" y1="-0.649519" y2="-0.793856"/>
				<line x1="2.875000" x2="3.375000" y1="1.082532" y2="1.371207"/>
				<line x1="-3.125000" x2="-3.375000" y1="-1.226869" y2="-0.793856"/>
				<line x1="2.375000" x2="3.375000" y1="1.371207" y2="1.371207"/>
				<line x1="-3.625000" x2="-2.625000" y1="-1.226869" y2="-1.226869"/>
				<line x1="2.875000" x2="3.125000" y1="1.371207" y2="1.804220"/>
				<line x1="-3.875000" x2="-3.625000" y1="-1.082532" y2="-1.226869"/>
				<line x1="3.125000" x2="3.625000" y1="1.804220" y2="0.938194"/>
				<line x1="-3.875000" x2="-3.625000" y1="-1.659882" y2="-1.226869"/>
				<line x1="3.625000" x2="3.375000" y1="1.515544" y2="1.371207"/>
				<line x1="-3.625000" x2="-3.375000" y1="-1.226869" y2="-1.659882"/>
				<line x1="3.875000" x2="4.125000" y1="1.371207" y2="0.938194"/>
				<line x1="-3.625000" x2="-2.875000" y1="-1.226869" y2="-1.659882"/>
				<line x1="4.375000" x2="4.125000" y1="1.082532" y2="0.938194"/>
				<line x1="-4.375000" x2="-4.125000" y1="-0.793857" y2="-1.226869"/>
				<line x1="3.625000" x2="4.125000" y1="0.649519" y2="0.938194"/>
				<line x1="-3.875000" x2="-4.375000" y1="-1.082532" y2="-0.793857"/>
				<line x1="4.125000" x2="3.625000" y1="0.938194" y2="0.938194"/>
				<line x1="-4.625000" x2="-4.375000" y1="-0.649519" y2="-0.793856"/>
				<line x1="4.375000" x2="3.875000" y1="1.082532" y2="1.371207"/>
				<line x1="-4.625000" x2="-4.375000" y1="-1.226869" y2="-0.793856"/>
				<line x1="3.875000" x2="4.375000" y1="1.371207" y2="1.371207"/>
				<line x1="-4.125000" x2="-4.625000" y1="-1.226869" y2="-1.226869"/>
				<line x1="4.375000" x2="4.125000" y1="1.371207" y2="1.804220"/>
				<line x1="-3.875000" x2="-4.125000" y1="-1.082532" y2="-1.226869"/>
				<line x1="3.625000" x2="4.125000" y1="0.938194" y2="1.804220"/>
				<line x1="-3.875000" x2="-4.125000" y1="-1.659882" y2="-1.226869"/>
				<line x1="3.625000" x2="3.875000" y1="1.515544" y2="1.371207"/>
				<line x1="-4.375000" x2="-3.375000" y1="-1.659882" y2="-1.659882"/>
				<line x1="3.375000" x2="3.125000" y1="2.237232" y2="1.804220"/>
				<line x1="-4.125000" x2="-4.375000" y1="-1.226869" y2="-1.659882"/>
				<line x1="2.375000" x2="3.125000" y1="2.237232" y2="1.804220"/>
				<line x1="-4.625000" x2="-4.125000" y1="-1.515544" y2="-1.226869"/>
				<line x1="3.625000" x2="3.125000" y1="1.515544" y2="1.804220"/>
				<line x1="-3.875000" x2="-3.375000" y1="-1.948557" y2="-1.659882"/>
				<line x1="3.625000" x2="3.375000" y1="1.804220" y2="2.237232"/>
				<line x1="-3.375000" x2="-2.625000" y1="-1.659882" y2="-1.226869"/>
				<line x1="2.625000" x2="3.375000" y1="1.804220" y2="2.237232"/>
				<line x1="-3.125000" x2="-3.375000" y1="-2.092895" y2="-1.659882"/>
				<line x1="2.375000" x2="3.375000" y1="2.237232" y2="2.237232"/>
				<line x1="-3.125000" x2="-3.125000" y1="-2.381570" y2="2.814583"/>
				<line x1="2.875000" x2="2.875000" y1="-2.381570" y2="2.814583"/>
				<line x1="-3.625000" x2="-2.625000" y1="-2.092895" y2="-2.092895"/>
				<line x1="2.875000" x2="3.125000" y1="2.237232" y2="2.670245"/>
				<line x1="-3.875000" x2="-3.625000" y1="-1.948557" y2="-2.092895"/>
				<line x1="2.875000" x2="3.125000" y1="2.814583" y2="2.670245"/>
				<line x1="-3.875000" x2="-3.375000" y1="-2.525908" y2="-1.659882"/>
				<line x1="3.625000" x2="3.125000" y1="2.381570" y2="2.670245"/>
				<line x1="-3.875000" x2="-3.375000" y1="-2.814583" y2="-2.525908"/>
				<line x1="3.125000" x2="3.375000" y1="2.670245" y2="2.237232"/>
				<line x1="-3.125000" x2="-3.375000" y1="-2.381570" y2="-2.525908"/>
				<line x1="3.625000" x2="3.375000" y1="2.381570" y2="2.237232"/>
				<line x1="-3.625000" x2="-3.375000" y1="-2.092895" y2="-2.525908"/>
				<line x1="3.875000" x2="4.125000" y1="2.237232" y2="1.804220"/>
				<line x1="-3.125000" x2="-3.625000" y1="-2.381570" y2="-2.092895"/>
				<line x1="4.375000" x2="4.125000" y1="1.948557" y2="1.804220"/>
				<line x1="-3.875000" x2="-4.375000" y1="-1.948557" y2="-1.659882"/>
				<line x1="3.625000" x2="4.125000" y1="1.515544" y2="1.804220"/>
				<line x1="-4.625000" x2="-4.375000" y1="-1.515544" y2="-1.659882"/>
				<line x1="3.125000" x2="4.125000" y1="1.804220" y2="1.804220"/>
				<line x1="-4.625000" x2="-4.375000" y1="-2.092895" y2="-1.659882"/>
				<line x1="3.625000" x2="3.625000" y1="0.072169" y2="2.381570"/>
				<line x1="-4.625000" x2="-4.625000" y1="-2.381570" y2="2.814583"/>
				<line x1="3.625000" x2="3.875000" y1="1.804220" y2="2.237232"/>
				<line x1="-4.125000" x2="-4.625000" y1="-2.092895" y2="-2.092895"/>
				<line x1="4.375000" x2="3.875000" y1="1.948557" y2="2.237232"/>
				<line x1="-3.875000" x2="-4.125000" y1="-1.948557" y2="-2.092895"/>
				<line x1="3.875000" x2="4.375000" y1="2.237232" y2="2.237232"/>
				<line x1="-4.375000" x2="-3.875000" y1="-1.659882" y2="-2.525908"/>
				<line x1="4.375000" x2="4.375000" y1="-2.381570" y2="2.814583"/>
				<line x1="-3.875000" x2="-3.875000" y1="-2.814583" y2="-0.793857"/>
				<line x1="4.375000" x2="4.125000" y1="2.237232" y2="2.670245"/>
				<line x1="-4.375000" x2="-3.375000" y1="-2.525908" y2="-2.525908"/>
				<line x1="4.375000" x2="4.125000" y1="2.814583" y2="2.670245"/>
				<line x1="-3.875000" x2="-4.375000" y1="-2.814583" y2="-2.525908"/>
				<line x1="3.625000" x2="4.125000" y1="2.381570" y2="2.670245"/>
				<line x1="-4.625000" x2="-4.375000" y1="-2.381570" y2="-2.525908"/>
				<line x1="4.125000" x2="3.875000" y1="2.670245" y2="2.237232"/>
				<line x1="-4.125000" x2="-4.375000" y1="-2.092895" y2="-2.525908"/>
				<line x1="3.625000" x2="3.875000" y1="2.381570" y2="2.237232"/>
				<line x1="-4.625000" x2="-4.125000" y1="-2.381570" y2="-2.092895"/>
			</g>
		</g>
		<g>
			<!-- layer: frame -->
			<g>
				<g>
					<line x1="-4.625000" x2="4.375000" y1="2.814583" y2="2.814583"/>
					<line x1="-4.625000" x2="4.375000" y1="-2.814583" y2="-2.814583"/>
					<line x1="-4.625000" x2="-4.625000" y1="2.814583" y2="-2.814583"/>
					<line x1="4.375000" x2="4.375000" y1="2.814583" y2="-2.814583"/>
				</g>
			</g>
		</g>
	</g>
</svg>