<?xml version="1.0" encoding="UTF-8"?>
<!DOCTYPE svg PUBLIC "-//W3C//DTD SVG 1.1//EN"
    "http://www.w3.org/Graphics/SVG/1.1/DTD/svg11.dtd">
<svg xmlns="http://www.w3.org/2000/svg" xmlns:xlink="http://www.w3.org/1999/xlink" version="1.1" width="9.75in" height="6.06in" viewBox="0 0 9.7500 6.0622"><g fill="none" stroke-width="0.0100" stroke="#03161d" transform="translate(4.8750,3.0311) scale(1, -1)"><g><!-- layer: framelayer1 --><g><g><line x1="-3.385500" y1="2.814583" x2="4.865000" y2="2.814583" /><line x1="-3.385500" y1="-2.814583" x2="4.865000" y2="-2.814583" /><line x1="-3.385500" y1="2.814583" x2="-3.385500" y2="-2.814583" /><line x1="4.865000" y1="2.814583" x2="4.865000" y2="-2.814583" /></g><line x1="0.625000" y1="2.092895" x2="0.875000" y2="2.525908" /><line x1="1.125000" y1="2.381570" x2="0.625000" y2="2.092895" /><line x1="0.375000" y1="2.814582" x2="0.875000" y2="2.525908" /><line x1="0.375000" y1="1.948557" x2="0.625000" y2="2.092895" /><line x1="0.875000" y1="2.525908" x2="0.375000" y2="2.525907" /><line x1="0.375000" y1="2.525908" x2="0.625000" y2="2.092895" /><line x1="0.375000" y1="1.948557" x2="0.375000" y2="2.814582" /><line x1="-0.375000" y1="2.381570" x2="-0.125000" y2="2.237232" /><line x1="1.875000" y1="-2.381570" x2="1.375000" y2="-2.092895" /><line x1="-0.375000" y1="1.804220" x2="-0.125000" y2="2.237232" /><line x1="1.375000" y1="-2.092895" x2="1.625000" y2="-2.525908" /><line x1="-0.375000" y1="2.381570" x2="-0.375000" y2="1.804220" /><line x1="1.125000" y1="-2.814583" x2="1.625000" y2="-2.525908" /><line x1="-0.375000" y1="1.515544" x2="-0.375000" y2="1.804220" /><line x1="1.625000" y1="-2.525908" x2="1.125000" y2="-2.525908" /><line x1="0.125000" y1="1.804220" x2="-0.375000" y2="1.804220" /><line x1="1.125000" y1="-2.525908" x2="1.375000" y2="-2.092895" /><line x1="0.375000" y1="1.948557" x2="0.125000" y2="1.804220" /><line x1="1.125000" y1="-1.948557" x2="1.375000" y2="-2.092895" /><line x1="-0.125000" y1="2.237232" x2="0.125000" y2="1.804220" /><line x1="1.875000" y1="-1.804220" x2="2.125000" y2="-2.237232" /><line x1="0.375000" y1="1.948557" x2="-0.125000" y2="2.237232" /><line x1="1.625000" y1="-2.525908" x2="2.125000" y2="-2.237232" /><line x1="0.875000" y1="1.659882" x2="0.375000" y2="1.659882" /><line x1="2.625000" y1="-1.948557" x2="2.125000" y2="-2.237232" /><line x1="0.375000" y1="1.948557" x2="1.125000" y2="1.515544" /><line x1="2.125000" y1="-2.237232" x2="2.375000" y2="-1.804220" /><line x1="0.625000" y1="1.226869" x2="0.875000" y2="1.659882" /><line x1="1.875000" y1="-1.515544" x2="2.625000" y2="-1.948557" /><line x1="0.375000" y1="1.659882" x2="0.625000" y2="1.226869" /><line x1="2.375000" y1="-1.804220" x2="1.875000" y2="-1.804220" /><line x1="-0.375000" y1="1.515544" x2="-0.125000" y2="1.371207" /><line x1="1.875000" y1="-2.381570" x2="1.875000" y2="-1.515544" /><line x1="-0.375000" y1="0.938194" x2="-0.125000" y2="1.371207" /><line x1="1.875000" y1="-1.515544" x2="1.375000" y2="-1.226869" /><line x1="-0.375000" y1="1.515544" x2="-0.375000" y2="0.938194" /><line x1="1.375000" y1="-1.226869" x2="1.625000" y2="-1.659882" /><line x1="-0.375000" y1="0.649519" x2="-0.375000" y2="0.938194" /><line x1="1.125000" y1="-1.948557" x2="1.625000" y2="-1.659882" /><line x1="0.125000" y1="0.938194" x2="-0.375000" y2="0.938194" /><line x1="1.625000" y1="-1.659882" x2="1.125000" y2="-1.659882" /><line x1="-0.375000" y1="0.649519" x2="0.125000" y2="0.938194" /><line x1="1.125000" y1="-1.659882" x2="1.375000" y2="-1.226869" /><line x1="0.125000" y1="0.938194" x2="0.625000" y2="1.226869" /><line x1="1.125000" y1="-1.082532" x2="1.375000" y2="-1.226869" /><line x1="-0.125000" y1="1.371207" x2="0.125000" y2="0.938194" /><line x1="1.875000" y1="-0.938194" x2="2.125000" y2="-1.371207" /><line x1="0.875000" y1="0.793857" x2="0.375000" y2="0.793857" /><line x1="1.625000" y1="-1.659882" x2="2.125000" y2="-1.371207" /><line x1="-0.125000" y1="1.371207" x2="0.875000" y2="0.793857" /><line x1="2.625000" y1="-1.082532" x2="2.125000" y2="-1.371207" /><line x1="1.125000" y1="0.649519" x2="0.875000" y2="0.793857" /><line x1="2.125000" y1="-1.371207" x2="2.375000" y2="-0.938194" /><line x1="0.625000" y1="0.360844" x2="0.875000" y2="0.793857" /><line x1="1.875000" y1="-0.649519" x2="2.625000" y2="-1.082532" /><line x1="1.125000" y1="0.649519" x2="0.625000" y2="0.360844" /><line x1="2.375000" y1="-0.938194" x2="1.875000" y2="-0.938194" /><line x1="0.375000" y1="0.216506" x2="0.625000" y2="0.360844" /><line x1="1.875000" y1="-1.515544" x2="1.875000" y2="-0.649519" /><line x1="0.375000" y1="0.793857" x2="0.625000" y2="0.360844" /><line x1="1.875000" y1="-0.649519" x2="1.375000" y2="-0.360844" /><line x1="0.375000" y1="0.216506" x2="0.375000" y2="1.948557" /><line x1="1.375000" y1="-0.360844" x2="1.625000" y2="-0.793857" /><line x1="-0.375000" y1="0.649519" x2="-0.125000" y2="0.505182" /><line x1="1.125000" y1="-1.082532" x2="1.625000" y2="-0.793857" /><line x1="-0.375000" y1="0.072169" x2="-0.125000" y2="0.505182" /><line x1="1.625000" y1="-0.793857" x2="1.125000" y2="-0.793857" /><line x1="-0.375000" y1="0.649519" x2="-0.375000" y2="0.072169" /><line x1="1.125000" y1="-2.814583" x2="1.125000" y2="-0.793857" /><line x1="-0.375000" y1="-0.216506" x2="-0.375000" y2="0.072169" /><line x1="1.125000" y1="-0.793857" x2="1.375000" y2="-0.360844" /><line x1="0.125000" y1="0.072169" x2="-0.375000" y2="0.072169" /><line x1="1.125000" y1="-0.216506" x2="1.375000" y2="-0.360844" /><line x1="-0.375000" y1="-0.216506" x2="0.125000" y2="0.072169" /><line x1="1.875000" y1="-0.072169" x2="2.125000" y2="-0.505181" /><line x1="0.375000" y1="0.216506" x2="0.125000" y2="0.072169" /><line x1="1.625000" y1="-0.793857" x2="2.125000" y2="-0.505181" /><line x1="-0.125000" y1="0.505182" x2="0.125000" y2="0.072169" /><line x1="2.625000" y1="-0.216506" x2="2.125000" y2="-0.505182" /><line x1="0.375000" y1="0.216506" x2="-0.125000" y2="0.505182" /><line x1="2.125000" y1="-0.505182" x2="2.375000" y2="-0.072169" /><line x1="0.875000" y1="-0.072169" x2="0.375000" y2="-0.072169" /><line x1="2.625000" y1="-0.216506" x2="2.375000" y2="-0.072169" /><line x1="0.375000" y1="0.216506" x2="0.875000" y2="-0.072169" /><line x1="1.875000" y1="0.216506" x2="2.375000" y2="-0.072169" /><line x1="1.125000" y1="-0.216506" x2="0.875000" y2="-0.072169" /><line x1="2.375000" y1="-0.072169" x2="1.875000" y2="-0.072169" /><line x1="0.625000" y1="-0.505182" x2="0.875000" y2="-0.072169" /><line x1="1.875000" y1="-0.649519" x2="1.875000" y2="0.216506" /><line x1="1.125000" y1="-0.216506" x2="0.625000" y2="-0.505182" /><line x1="1.875000" y1="0.216506" x2="1.375000" y2="0.505182" /><line x1="0.375000" y1="-0.072169" x2="0.625000" y2="-0.505181" /><line x1="1.375000" y1="0.505182" x2="1.625000" y2="0.072169" /><line x1="0.375000" y1="-0.649519" x2="0.375000" y2="0.216506" /><line x1="1.875000" y1="0.216506" x2="1.625000" y2="0.072169" /><line x1="-0.375000" y1="-0.216506" x2="-0.125000" y2="-0.360844" /><line x1="1.125000" y1="-0.216506" x2="1.625000" y2="0.072169" /><line x1="-0.375000" y1="-0.793857" x2="-0.125000" y2="-0.360844" /><line x1="1.625000" y1="0.072169" x2="1.125000" y2="0.072169" /><line x1="-0.375000" y1="-0.216506" x2="-0.375000" y2="-0.793857" /><line x1="1.125000" y1="-0.793857" x2="1.125000" y2="0.072169" /><line x1="-0.375000" y1="-1.082532" x2="-0.375000" y2="-0.793857" /><line x1="1.125000" y1="0.072169" x2="1.375000" y2="0.505182" /><line x1="0.125000" y1="-0.793857" x2="-0.375000" y2="-0.793857" /><line x1="1.125000" y1="0.649519" x2="1.375000" y2="0.505182" /><line x1="-0.375000" y1="-1.082532" x2="0.125000" y2="-0.793857" /><line x1="1.875000" y1="0.793857" x2="2.125000" y2="0.360844" /><line x1="0.125000" y1="-0.793857" x2="0.625000" y2="-0.505181" /><line x1="1.875000" y1="0.216506" x2="2.125000" y2="0.360844" /><line x1="-0.125000" y1="-0.360844" x2="0.125000" y2="-0.793857" /><line x1="2.625000" y1="0.649519" x2="2.125000" y2="0.360844" /><line x1="0.375000" y1="-0.649519" x2="-0.125000" y2="-0.360844" /><line x1="2.125000" y1="0.360844" x2="2.375000" y2="0.793857" /><line x1="0.875000" y1="-0.938194" x2="0.375000" y2="-0.938194" /><line x1="2.625000" y1="0.649519" x2="2.375000" y2="0.793857" /><line x1="0.375000" y1="-0.649519" x2="1.125000" y2="-1.082532" /><line x1="2.375000" y1="0.793857" x2="1.875000" y2="0.793857" /><line x1="0.625000" y1="-1.371207" x2="0.875000" y2="-0.938194" /><line x1="1.375000" y1="1.371207" x2="2.375000" y2="0.793857" /><line x1="1.125000" y1="-1.082532" x2="0.625000" y2="-1.371207" /><line x1="1.375000" y1="1.371207" x2="1.625000" y2="0.938194" /><line x1="0.375000" y1="-0.938194" x2="0.625000" y2="-1.371207" /><line x1="1.125000" y1="0.649519" x2="1.625000" y2="0.938194" /><line x1="0.375000" y1="-1.515544" x2="0.375000" y2="-0.649519" /><line x1="1.625000" y1="0.938194" x2="1.125000" y2="0.938194" /><line x1="-0.375000" y1="-1.082532" x2="-0.125000" y2="-1.226869" /><line x1="1.125000" y1="0.938194" x2="1.375000" y2="1.371207" /><line x1="-0.375000" y1="-1.659882" x2="-0.125000" y2="-1.226869" /><line x1="1.125000" y1="1.515544" x2="1.375000" y2="1.371207" /><line x1="-0.375000" y1="-1.082532" x2="-0.375000" y2="-1.659882" /><line x1="1.875000" y1="1.659882" x2="2.125000" y2="1.226869" /><line x1="-0.375000" y1="-1.948557" x2="-0.375000" y2="-1.659882" /><line x1="1.625000" y1="0.938194" x2="2.125000" y2="1.226869" /><line x1="0.125000" y1="-1.659882" x2="-0.375000" y2="-1.659882" /><line x1="2.125000" y1="1.226869" x2="2.375000" y2="1.659882" /><line x1="-0.375000" y1="-1.948557" x2="0.125000" y2="-1.659882" /><line x1="1.875000" y1="1.948557" x2="2.625000" y2="1.515544" /><line x1="0.125000" y1="-1.659882" x2="0.625000" y2="-1.371207" /><line x1="2.375000" y1="1.659882" x2="1.875000" y2="1.659882" /><line x1="-0.125000" y1="-1.226869" x2="0.125000" y2="-1.659882" /><line x1="1.875000" y1="0.216506" x2="1.875000" y2="1.948557" /><line x1="0.375000" y1="-1.515544" x2="-0.125000" y2="-1.226869" /><line x1="1.875000" y1="1.948557" x2="1.375000" y2="2.237232" /><line x1="0.875000" y1="-1.804220" x2="0.375000" y2="-1.804220" /><line x1="1.375000" y1="2.237232" x2="1.625000" y2="1.804220" /><line x1="0.375000" y1="-1.515544" x2="1.125000" y2="-1.948557" /><line x1="1.875000" y1="1.948557" x2="1.625000" y2="1.804220" /><line x1="0.625000" y1="-2.237232" x2="0.875000" y2="-1.804220" /><line x1="0.625000" y1="1.226869" x2="1.625000" y2="1.804220" /><line x1="1.125000" y1="-1.948557" x2="0.625000" y2="-2.237232" /><line x1="1.625000" y1="1.804220" x2="1.125000" y2="1.804220" /><line x1="0.375000" y1="-1.804220" x2="0.625000" y2="-2.237232" /><line x1="1.125000" y1="0.072169" x2="1.125000" y2="2.381570" /><line x1="0.375000" y1="-2.381570" x2="0.375000" y2="-1.515544" /><line x1="1.125000" y1="1.804220" x2="1.375000" y2="2.237232" /><line x1="-0.375000" y1="-1.948557" x2="-0.125000" y2="-2.092895" /><line x1="0.875000" y1="2.525908" x2="1.375000" y2="2.237232" /><line x1="-0.375000" y1="-2.525908" x2="-0.125000" y2="-2.092895" /><line x1="1.875000" y1="2.525908" x2="2.125000" y2="2.092895" /><line x1="-0.375000" y1="-1.948557" x2="-0.375000" y2="-2.525908" /><line x1="1.875000" y1="1.948557" x2="2.125000" y2="2.092895" /><line x1="-0.375000" y1="-2.814583" x2="-0.375000" y2="-2.525908" /><line x1="2.625000" y1="2.381570" x2="2.125000" y2="2.092895" /><line x1="0.125000" y1="-2.525908" x2="-0.375000" y2="-2.525908" /><line x1="2.125000" y1="2.092895" x2="2.375000" y2="2.525908" /><line x1="-0.375000" y1="-2.814583" x2="0.125000" y2="-2.525908" /><line x1="1.875000" y1="2.814582" x2="2.375000" y2="2.525908" /><line x1="0.125000" y1="-2.525908" x2="0.625000" y2="-2.237232" /><line x1="2.375000" y1="2.525908" x2="1.875000" y2="2.525907" /><line x1="-0.125000" y1="-2.092895" x2="0.125000" y2="-2.525908" /><line x1="1.875000" y1="1.948557" x2="1.875000" y2="2.814582" /><line x1="0.375000" y1="-2.381570" x2="-0.125000" y2="-2.092895" /><line x1="3.375000" y1="-2.381570" x2="2.875000" y2="-2.092895" /><line x1="-0.625000" y1="2.525908" x2="-1.125000" y2="2.525907" /><line x1="2.875000" y1="-2.092895" x2="3.125000" y2="-2.525908" /><line x1="-1.125000" y1="2.814582" x2="-0.625000" y2="2.525908" /><line x1="2.625000" y1="-2.814583" x2="3.125000" y2="-2.525908" /><line x1="-0.375000" y1="2.381570" x2="-0.625000" y2="2.525908" /><line x1="3.125000" y1="-2.525908" x2="2.625000" y2="-2.525908" /><line x1="-0.875000" y1="2.092895" x2="-0.625000" y2="2.525908" /><line x1="2.625000" y1="-2.525908" x2="2.875000" y2="-2.092895" /><line x1="-0.375000" y1="2.381570" x2="-0.875000" y2="2.092895" /><line x1="2.625000" y1="-1.948557" x2="2.875000" y2="-2.092895" /><line x1="-1.125000" y1="1.948557" x2="-0.875000" y2="2.092895" /><line x1="3.375000" y1="-1.804220" x2="3.625000" y2="-2.237232" /><line x1="-1.125000" y1="2.525908" x2="-0.875000" y2="2.092895" /><line x1="3.125000" y1="-2.525908" x2="3.625000" y2="-2.237232" /><line x1="-1.125000" y1="1.948557" x2="-1.125000" y2="2.814582" /><line x1="4.125000" y1="-1.948557" x2="3.625000" y2="-2.237232" /><line x1="-1.875000" y1="1.804220" x2="-1.625000" y2="2.237232" /><line x1="3.625000" y1="-2.237232" x2="3.875000" y2="-1.804220" /><line x1="-1.375000" y1="1.804220" x2="-1.875000" y2="1.804220" /><line x1="3.375000" y1="-1.515544" x2="4.125000" y2="-1.948557" /><line x1="-1.125000" y1="1.948557" x2="-1.375000" y2="1.804220" /><line x1="3.875000" y1="-1.804220" x2="3.375000" y2="-1.804220" /><line x1="-1.625000" y1="2.237232" x2="-1.375000" y2="1.804220" /><line x1="3.375000" y1="-2.381570" x2="3.375000" y2="-1.515544" /><line x1="-1.125000" y1="1.948557" x2="-1.625000" y2="2.237232" /><line x1="3.375000" y1="-1.515544" x2="2.875000" y2="-1.226869" /><line x1="-0.625000" y1="1.659882" x2="-1.125000" y2="1.659882" /><line x1="2.875000" y1="-1.226869" x2="3.125000" y2="-1.659882" /><line x1="-1.125000" y1="1.948557" x2="-0.375000" y2="1.515544" /><line x1="2.625000" y1="-1.948557" x2="3.125000" y2="-1.659882" /><line x1="-0.875000" y1="1.226869" x2="-0.625000" y2="1.659882" /><line x1="3.125000" y1="-1.659882" x2="2.625000" y2="-1.659882" /><line x1="-0.875000" y1="1.226869" x2="0.125000" y2="1.804220" /><line x1="2.625000" y1="-1.659882" x2="2.875000" y2="-1.226869" /><line x1="-1.125000" y1="1.659882" x2="-0.875000" y2="1.226869" /><line x1="2.625000" y1="-1.082532" x2="2.875000" y2="-1.226869" /><line x1="-1.875000" y1="1.515544" x2="-1.625000" y2="1.371207" /><line x1="3.375000" y1="-0.938194" x2="3.625000" y2="-1.371207" /><line x1="-1.875000" y1="0.938194" x2="-1.625000" y2="1.371207" /><line x1="3.125000" y1="-1.659882" x2="3.625000" y2="-1.371207" /><line x1="-1.375000" y1="0.938194" x2="-1.875000" y2="0.938194" /><line x1="4.125000" y1="-1.082532" x2="3.625000" y2="-1.371207" /><line x1="-1.875000" y1="0.649519" x2="-1.375000" y2="0.938194" /><line x1="3.625000" y1="-1.371207" x2="3.875000" y2="-0.938194" /><line x1="-1.375000" y1="0.938194" x2="-0.875000" y2="1.226869" /><line x1="3.375000" y1="-0.649519" x2="4.125000" y2="-1.082532" /><line x1="-1.625000" y1="1.371207" x2="-1.375000" y2="0.938194" /><line x1="3.875000" y1="-0.938194" x2="3.375000" y2="-0.938194" /><line x1="-0.625000" y1="0.793857" x2="-1.125000" y2="0.793857" /><line x1="3.375000" y1="-1.515544" x2="3.375000" y2="-0.649519" /><line x1="-1.625000" y1="1.371207" x2="-0.625000" y2="0.793857" /><line x1="3.375000" y1="-0.649519" x2="2.875000" y2="-0.360844" /><line x1="-0.375000" y1="0.649519" x2="-0.625000" y2="0.793857" /><line x1="2.875000" y1="-0.360844" x2="3.125000" y2="-0.793857" /><line x1="-0.875000" y1="0.360844" x2="-0.625000" y2="0.793857" /><line x1="2.625000" y1="-1.082532" x2="3.125000" y2="-0.793857" /><line x1="-0.375000" y1="0.649519" x2="-0.875000" y2="0.360844" /><line x1="3.125000" y1="-0.793857" x2="2.625000" y2="-0.793857" /><line x1="-1.125000" y1="0.216506" x2="-0.875000" y2="0.360844" /><line x1="2.625000" y1="-2.814583" x2="2.625000" y2="-0.793857" /><line x1="-1.125000" y1="0.793857" x2="-0.875000" y2="0.360844" /><line x1="2.625000" y1="-0.793857" x2="2.875000" y2="-0.360844" /><line x1="-1.125000" y1="0.216506" x2="-1.125000" y2="1.948557" /><line x1="2.625000" y1="-0.216506" x2="2.875000" y2="-0.360844" /><line x1="-1.875000" y1="0.649519" x2="-1.625000" y2="0.505182" /><line x1="3.375000" y1="-0.072169" x2="3.625000" y2="-0.505181" /><line x1="-1.875000" y1="0.072169" x2="-1.625000" y2="0.505182" /><line x1="3.125000" y1="-0.793857" x2="3.625000" y2="-0.505181" /><line x1="-1.875000" y1="0.072169" x2="-1.875000" y2="2.381570" /><line x1="4.125000" y1="-0.216506" x2="3.625000" y2="-0.505182" /><line x1="-1.375000" y1="0.072169" x2="-1.875000" y2="0.072169" /><line x1="3.625000" y1="-0.505182" x2="3.875000" y2="-0.072169" /><line x1="-1.875000" y1="-0.216506" x2="-1.375000" y2="0.072169" /><line x1="4.125000" y1="-0.216506" x2="3.875000" y2="-0.072169" /><line x1="-1.125000" y1="0.216506" x2="-1.375000" y2="0.072169" /><line x1="3.375000" y1="0.216506" x2="3.875000" y2="-0.072169" /><line x1="-1.625000" y1="0.505182" x2="-1.375000" y2="0.072169" /><line x1="3.875000" y1="-0.072169" x2="3.375000" y2="-0.072169" /><line x1="-1.125000" y1="0.216506" x2="-1.625000" y2="0.505182" /><line x1="3.375000" y1="-0.649519" x2="3.375000" y2="0.216506" /><line x1="-0.625000" y1="-0.072169" x2="-1.125000" y2="-0.072169" /><line x1="3.375000" y1="0.216506" x2="2.875000" y2="0.505182" /><line x1="-1.125000" y1="0.216506" x2="-0.625000" y2="-0.072169" /><line x1="2.875000" y1="0.505182" x2="3.125000" y2="0.072169" /><line x1="-0.375000" y1="-0.216506" x2="-0.625000" y2="-0.072169" /><line x1="3.375000" y1="0.216506" x2="3.125000" y2="0.072169" /><line x1="-0.875000" y1="-0.505182" x2="-0.625000" y2="-0.072169" /><line x1="2.625000" y1="-0.216506" x2="3.125000" y2="0.072169" /><line x1="-0.375000" y1="-0.216506" x2="-0.875000" y2="-0.505182" /><line x1="3.125000" y1="0.072169" x2="2.625000" y2="0.072169" /><line x1="-1.125000" y1="-0.072169" x2="-0.875000" y2="-0.505181" /><line x1="2.625000" y1="-0.793857" x2="2.625000" y2="0.072169" /><line x1="-1.125000" y1="-0.649519" x2="-1.125000" y2="0.216506" /><line x1="2.625000" y1="0.072169" x2="2.875000" y2="0.505182" /><line x1="-1.875000" y1="-0.216506" x2="-1.625000" y2="-0.360844" /><line x1="2.625000" y1="0.649519" x2="2.875000" y2="0.505182" /><line x1="-1.875000" y1="-0.793857" x2="-1.625000" y2="-0.360844" /><line x1="3.375000" y1="0.793857" x2="3.625000" y2="0.360844" /><line x1="-1.875000" y1="-0.793857" x2="-1.875000" y2="0.072169" /><line x1="3.375000" y1="0.216506" x2="3.625000" y2="0.360844" /><line x1="-1.375000" y1="-0.793857" x2="-1.875000" y2="-0.793857" /><line x1="4.125000" y1="0.649519" x2="3.625000" y2="0.360844" /><line x1="-1.875000" y1="-1.082532" x2="-1.375000" y2="-0.793857" /><line x1="3.625000" y1="0.360844" x2="3.875000" y2="0.793857" /><line x1="-1.375000" y1="-0.793857" x2="-0.875000" y2="-0.505181" /><line x1="4.125000" y1="0.649519" x2="3.875000" y2="0.793857" /><line x1="-1.625000" y1="-0.360844" x2="-1.375000" y2="-0.793857" /><line x1="3.875000" y1="0.793857" x2="3.375000" y2="0.793857" /><line x1="-1.125000" y1="-0.649519" x2="-1.625000" y2="-0.360844" /><line x1="2.875000" y1="1.371207" x2="3.875000" y2="0.793857" /><line x1="-0.625000" y1="-0.938194" x2="-1.125000" y2="-0.938194" /><line x1="2.875000" y1="1.371207" x2="3.125000" y2="0.938194" /><line x1="-1.125000" y1="-0.649519" x2="-0.375000" y2="-1.082532" /><line x1="2.625000" y1="0.649519" x2="3.125000" y2="0.938194" /><line x1="-0.875000" y1="-1.371207" x2="-0.625000" y2="-0.938194" /><line x1="3.125000" y1="0.938194" x2="2.625000" y2="0.938194" /><line x1="-0.375000" y1="-1.082532" x2="-0.875000" y2="-1.371207" /><line x1="2.625000" y1="0.938194" x2="2.875000" y2="1.371207" /><line x1="-1.125000" y1="-0.938194" x2="-0.875000" y2="-1.371207" /><line x1="2.625000" y1="1.515544" x2="2.875000" y2="1.371207" /><line x1="-1.125000" y1="-1.515544" x2="-1.125000" y2="-0.649519" /><line x1="3.375000" y1="1.659882" x2="3.625000" y2="1.226869" /><line x1="-1.875000" y1="-1.082532" x2="-1.625000" y2="-1.226869" /><line x1="3.125000" y1="0.938194" x2="3.625000" y2="1.226869" /><line x1="-1.875000" y1="-1.659882" x2="-1.625000" y2="-1.226869" /><line x1="3.625000" y1="1.226869" x2="3.875000" y2="1.659882" /><line x1="-1.375000" y1="-1.659882" x2="-1.875000" y2="-1.659882" /><line x1="3.375000" y1="1.948557" x2="4.125000" y2="1.515544" /><line x1="-1.875000" y1="-1.948557" x2="-1.375000" y2="-1.659882" /><line x1="3.875000" y1="1.659882" x2="3.375000" y2="1.659882" /><line x1="-1.375000" y1="-1.659882" x2="-0.875000" y2="-1.371207" /><line x1="3.375000" y1="0.216506" x2="3.375000" y2="1.948557" /><line x1="-1.625000" y1="-1.226869" x2="-1.375000" y2="-1.659882" /><line x1="3.375000" y1="1.948557" x2="2.875000" y2="2.237232" /><line x1="-1.125000" y1="-1.515544" x2="-1.625000" y2="-1.226869" /><line x1="2.875000" y1="2.237232" x2="3.125000" y2="1.804220" /><line x1="-0.625000" y1="-1.804220" x2="-1.125000" y2="-1.804220" /><line x1="3.375000" y1="1.948557" x2="3.125000" y2="1.804220" /><line x1="-1.125000" y1="-1.515544" x2="-0.375000" y2="-1.948557" /><line x1="2.125000" y1="1.226869" x2="3.125000" y2="1.804220" /><line x1="-0.875000" y1="-2.237232" x2="-0.625000" y2="-1.804220" /><line x1="3.125000" y1="1.804220" x2="2.625000" y2="1.804220" /><line x1="-0.375000" y1="-1.948557" x2="-0.875000" y2="-2.237232" /><line x1="2.625000" y1="0.072169" x2="2.625000" y2="2.381570" /><line x1="-1.125000" y1="-1.804220" x2="-0.875000" y2="-2.237232" /><line x1="2.625000" y1="1.804220" x2="2.875000" y2="2.237232" /><line x1="-1.125000" y1="-2.381570" x2="-1.125000" y2="-1.515544" /><line x1="2.375000" y1="2.525908" x2="2.875000" y2="2.237232" /><line x1="-1.875000" y1="-1.948557" x2="-1.625000" y2="-2.092895" /><line x1="3.375000" y1="2.525908" x2="3.625000" y2="2.092895" /><line x1="-1.875000" y1="-2.525908" x2="-1.625000" y2="-2.092895" /><line x1="3.375000" y1="1.948557" x2="3.625000" y2="2.092895" /><line x1="-1.875000" y1="-2.814583" x2="-1.875000" y2="-0.793857" /><line x1="4.125000" y1="2.381570" x2="3.625000" y2="2.092895" /><line x1="-1.375000" y1="-2.525908" x2="-1.875000" y2="-2.525908" /><line x1="3.625000" y1="2.092895" x2="3.875000" y2="2.525908" /><line x1="-1.875000" y1="-2.814583" x2="-1.375000" y2="-2.525908" /><line x1="3.375000" y1="2.814582" x2="3.875000" y2="2.525908" /><line x1="-1.375000" y1="-2.525908" x2="-0.875000" y2="-2.237232" /><line x1="3.875000" y1="2.525908" x2="3.375000" y2="2.525907" /><line x1="-1.625000" y1="-2.092895" x2="-1.375000" y2="-2.525908" /><line x1="3.375000" y1="1.948557" x2="3.375000" y2="2.814582" /><line x1="-1.125000" y1="-2.381570" x2="-1.625000" y2="-2.092895" /><line x1="4.875000" y1="-2.381570" x2="4.375000" y2="-2.092895" /><line x1="-2.125000" y1="2.525908" x2="-2.625000" y2="2.525907" /><line x1="4.375000" y1="-2.092895" x2="4.625000" y2="-2.525908" /><line x1="-2.625000" y1="2.814582" x2="-2.125000" y2="2.525908" /><line x1="4.125000" y1="-2.814583" x2="4.625000" y2="-2.525908" /><line x1="-2.125000" y1="2.525908" x2="-1.625000" y2="2.237232" /><line x1="4.625000" y1="-2.525908" x2="4.125000" y2="-2.525908" /><line x1="-2.375000" y1="2.092895" x2="-2.125000" y2="2.525908" /><line x1="4.125000" y1="-2.525908" x2="4.375000" y2="-2.092895" /><line x1="-1.875000" y1="2.381570" x2="-2.375000" y2="2.092895" /><line x1="4.125000" y1="-1.948557" x2="4.375000" y2="-2.092895" /><line x1="-2.625000" y1="1.948557" x2="-2.375000" y2="2.092895" /><line x1="4.875000" y1="-1.804220" x2="5.125000" y2="-2.237232" /><line x1="-2.625000" y1="2.525908" x2="-2.375000" y2="2.092895" /><line x1="4.625000" y1="-2.525908" x2="5.125000" y2="-2.237232" /><line x1="-2.625000" y1="1.948557" x2="-2.625000" y2="2.814582" /><line x1="5.625000" y1="-1.948557" x2="5.125000" y2="-2.237232" /><line x1="-3.375000" y1="2.381570" x2="-3.125000" y2="2.237232" /><line x1="5.125000" y1="-2.237232" x2="5.375000" y2="-1.804220" /><line x1="-3.375000" y1="1.804220" x2="-3.125000" y2="2.237232" /><line x1="4.875000" y1="-1.515544" x2="5.625000" y2="-1.948557" /><line x1="-2.875000" y1="1.804220" x2="-3.375000" y2="1.804220" /><line x1="5.375000" y1="-1.804220" x2="4.875000" y2="-1.804220" /><line x1="-3.375000" y1="1.515544" x2="-2.875000" y2="1.804220" /><line x1="4.875000" y1="-2.381570" x2="4.875000" y2="-1.515544" /><line x1="-2.625000" y1="1.948557" x2="-2.875000" y2="1.804220" /><line x1="4.875000" y1="-1.515544" x2="4.375000" y2="-1.226869" /><line x1="-3.125000" y1="2.237232" x2="-2.875000" y2="1.804220" /><line x1="4.375000" y1="-1.226869" x2="4.625000" y2="-1.659882" /><line x1="-2.625000" y1="1.948557" x2="-3.125000" y2="2.237232" /><line x1="4.125000" y1="-1.948557" x2="4.625000" y2="-1.659882" /><line x1="-2.125000" y1="1.659882" x2="-2.625000" y2="1.659882" /><line x1="4.625000" y1="-1.659882" x2="4.125000" y2="-1.659882" /><line x1="-2.625000" y1="1.948557" x2="-1.875000" y2="1.515544" /><line x1="4.125000" y1="-1.659882" x2="4.375000" y2="-1.226869" /><line x1="-2.375000" y1="1.226869" x2="-2.125000" y2="1.659882" /><line x1="4.125000" y1="-1.082532" x2="4.375000" y2="-1.226869" /><line x1="-2.375000" y1="1.226869" x2="-1.375000" y2="1.804220" /><line x1="4.875000" y1="-0.938194" x2="5.125000" y2="-1.371207" /><line x1="-2.625000" y1="1.659882" x2="-2.375000" y2="1.226869" /><line x1="4.625000" y1="-1.659882" x2="5.125000" y2="-1.371207" /><line x1="-3.375000" y1="1.515544" x2="-3.125000" y2="1.371207" /><line x1="5.625000" y1="-1.082532" x2="5.125000" y2="-1.371207" /><line x1="-3.375000" y1="0.938194" x2="-3.125000" y2="1.371207" /><line x1="5.125000" y1="-1.371207" x2="5.375000" y2="-0.938194" /><line x1="-2.875000" y1="0.938194" x2="-3.375000" y2="0.938194" /><line x1="4.875000" y1="-0.649519" x2="5.625000" y2="-1.082532" /><line x1="-3.375000" y1="0.649519" x2="-2.875000" y2="0.938194" /><line x1="5.375000" y1="-0.938194" x2="4.875000" y2="-0.938194" /><line x1="-2.875000" y1="0.938194" x2="-2.375000" y2="1.226869" /><line x1="4.875000" y1="-1.515544" x2="4.875000" y2="-0.649519" /><line x1="-3.125000" y1="1.371207" x2="-2.875000" y2="0.938194" /><line x1="4.875000" y1="-0.649519" x2="4.375000" y2="-0.360844" /><line x1="-2.125000" y1="0.793857" x2="-2.625000" y2="0.793857" /><line x1="4.375000" y1="-0.360844" x2="4.625000" y2="-0.793857" /><line x1="-3.125000" y1="1.371207" x2="-2.125000" y2="0.793857" /><line x1="4.125000" y1="-1.082532" x2="4.625000" y2="-0.793857" /><line x1="-1.875000" y1="0.649519" x2="-2.125000" y2="0.793857" /><line x1="4.625000" y1="-0.793857" x2="4.125000" y2="-0.793857" /><line x1="-2.375000" y1="0.360844" x2="-2.125000" y2="0.793857" /><line x1="4.125000" y1="-2.814583" x2="4.125000" y2="-0.793857" /><line x1="-1.875000" y1="0.649519" x2="-2.375000" y2="0.360844" /><line x1="4.125000" y1="-0.793857" x2="4.375000" y2="-0.360844" /><line x1="-2.625000" y1="0.216506" x2="-2.375000" y2="0.360844" /><line x1="4.125000" y1="-0.216506" x2="4.375000" y2="-0.360844" /><line x1="-2.625000" y1="0.793857" x2="-2.375000" y2="0.360844" /><line x1="4.875000" y1="-0.072169" x2="5.125000" y2="-0.505181" /><line x1="-2.625000" y1="0.216506" x2="-2.625000" y2="1.948557" /><line x1="4.625000" y1="-0.793857" x2="5.125000" y2="-0.505181" /><line x1="-3.375000" y1="0.649519" x2="-3.125000" y2="0.505182" /><line x1="5.625000" y1="-0.216506" x2="5.125000" y2="-0.505182" /><line x1="-3.375000" y1="0.072169" x2="-3.125000" y2="0.505182" /><line x1="5.125000" y1="-0.505182" x2="5.375000" y2="-0.072169" /><line x1="-3.375000" y1="0.072169" x2="-3.375000" y2="2.381570" /><line x1="5.625000" y1="-0.216506" x2="5.375000" y2="-0.072169" /><line x1="-2.875000" y1="0.072169" x2="-3.375000" y2="0.072169" /><line x1="4.875000" y1="0.216506" x2="5.375000" y2="-0.072169" /><line x1="-3.375000" y1="-0.216506" x2="-2.875000" y2="0.072169" /><line x1="5.375000" y1="-0.072169" x2="4.875000" y2="-0.072169" /><line x1="-2.625000" y1="0.216506" x2="-2.875000" y2="0.072169" /><line x1="4.875000" y1="-0.649519" x2="4.875000" y2="0.216506" /><line x1="-3.125000" y1="0.505182" x2="-2.875000" y2="0.072169" /><line x1="4.875000" y1="0.216506" x2="4.375000" y2="0.505182" /><line x1="-2.625000" y1="0.216506" x2="-3.125000" y2="0.505182" /><line x1="4.375000" y1="0.505182" x2="4.625000" y2="0.072169" /><line x1="-2.125000" y1="-0.072169" x2="-2.625000" y2="-0.072169" /><line x1="4.875000" y1="0.216506" x2="4.625000" y2="0.072169" /><line x1="-2.625000" y1="0.216506" x2="-2.125000" y2="-0.072169" /><line x1="4.125000" y1="-0.216506" x2="4.625000" y2="0.072169" /><line x1="-1.875000" y1="-0.216506" x2="-2.125000" y2="-0.072169" /><line x1="4.625000" y1="0.072169" x2="4.125000" y2="0.072169" /><line x1="-2.375000" y1="-0.505182" x2="-2.125000" y2="-0.072169" /><line x1="4.125000" y1="-0.793857" x2="4.125000" y2="0.072169" /><line x1="-1.875000" y1="-0.216506" x2="-2.375000" y2="-0.505182" /><line x1="4.125000" y1="0.072169" x2="4.375000" y2="0.505182" /><line x1="-2.625000" y1="-0.072169" x2="-2.375000" y2="-0.505181" /><line x1="4.125000" y1="0.649519" x2="4.375000" y2="0.505182" /><line x1="-2.625000" y1="-0.649519" x2="-2.625000" y2="0.216506" /><line x1="4.875000" y1="0.793857" x2="5.125000" y2="0.360844" /><line x1="-3.375000" y1="-0.216506" x2="-3.125000" y2="-0.360844" /><line x1="4.875000" y1="0.216506" x2="5.125000" y2="0.360844" /><line x1="-3.375000" y1="-0.793857" x2="-3.125000" y2="-0.360844" /><line x1="5.625000" y1="0.649519" x2="5.125000" y2="0.360844" /><line x1="-3.375000" y1="-0.793857" x2="-3.375000" y2="0.072169" /><line x1="5.125000" y1="0.360844" x2="5.375000" y2="0.793857" /><line x1="-2.875000" y1="-0.793857" x2="-3.375000" y2="-0.793857" /><line x1="5.625000" y1="0.649519" x2="5.375000" y2="0.793857" /><line x1="-3.375000" y1="-1.082532" x2="-2.875000" y2="-0.793857" /><line x1="5.375000" y1="0.793857" x2="4.875000" y2="0.793857" /><line x1="-2.875000" y1="-0.793857" x2="-2.375000" y2="-0.505181" /><line x1="4.375000" y1="1.371207" x2="5.375000" y2="0.793857" /><line x1="-3.125000" y1="-0.360844" x2="-2.875000" y2="-0.793857" /><line x1="4.375000" y1="1.371207" x2="4.625000" y2="0.938194" /><line x1="-2.625000" y1="-0.649519" x2="-3.125000" y2="-0.360844" /><line x1="4.125000" y1="0.649519" x2="4.625000" y2="0.938194" /><line x1="-2.125000" y1="-0.938194" x2="-2.625000" y2="-0.938194" /><line x1="4.625000" y1="0.938194" x2="4.125000" y2="0.938194" /><line x1="-2.625000" y1="-0.649519" x2="-1.875000" y2="-1.082532" /><line x1="4.125000" y1="0.938194" x2="4.375000" y2="1.371207" /><line x1="-2.375000" y1="-1.371207" x2="-2.125000" y2="-0.938194" /><line x1="4.125000" y1="1.515544" x2="4.375000" y2="1.371207" /><line x1="-1.875000" y1="-1.082532" x2="-2.375000" y2="-1.371207" /><line x1="4.875000" y1="1.659882" x2="5.125000" y2="1.226869" /><line x1="-2.625000" y1="-0.938194" x2="-2.375000" y2="-1.371207" /><line x1="4.625000" y1="0.938194" x2="5.125000" y2="1.226869" /><line x1="-2.625000" y1="-1.515544" x2="-2.625000" y2="-0.649519" /><line x1="5.625000" y1="1.515544" x2="5.125000" y2="1.226869" /><line x1="-3.375000" y1="-1.082532" x2="-3.125000" y2="-1.226869" /><line x1="5.125000" y1="1.226869" x2="5.375000" y2="1.659882" /><line x1="-3.375000" y1="-1.659882" x2="-3.125000" y2="-1.226869" /><line x1="4.875000" y1="1.948557" x2="5.625000" y2="1.515544" /><line x1="-2.875000" y1="-1.659882" x2="-3.375000" y2="-1.659882" /><line x1="5.375000" y1="1.659882" x2="4.875000" y2="1.659882" /><line x1="-3.375000" y1="-1.948557" x2="-2.875000" y2="-1.659882" /><line x1="4.875000" y1="0.216506" x2="4.875000" y2="1.948557" /><line x1="-2.875000" y1="-1.659882" x2="-2.375000" y2="-1.371207" /><line x1="4.875000" y1="1.948557" x2="4.375000" y2="2.237232" /><line x1="-3.125000" y1="-1.226869" x2="-2.875000" y2="-1.659882" /><line x1="4.375000" y1="2.237232" x2="4.625000" y2="1.804220" /><line x1="-2.625000" y1="-1.515544" x2="-3.125000" y2="-1.226869" /><line x1="4.875000" y1="1.948557" x2="4.625000" y2="1.804220" /><line x1="-2.125000" y1="-1.804220" x2="-2.625000" y2="-1.804220" /><line x1="3.625000" y1="1.226869" x2="4.625000" y2="1.804220" /><line x1="-2.625000" y1="-1.515544" x2="-1.875000" y2="-1.948557" /><line x1="4.625000" y1="1.804220" x2="4.125000" y2="1.804220" /><line x1="-2.375000" y1="-2.237232" x2="-2.125000" y2="-1.804220" /><line x1="4.125000" y1="0.072169" x2="4.125000" y2="2.381570" /><line x1="-1.875000" y1="-1.948557" x2="-2.375000" y2="-2.237232" /><line x1="4.125000" y1="1.804220" x2="4.375000" y2="2.237232" /><line x1="-2.625000" y1="-1.804220" x2="-2.375000" y2="-2.237232" /><line x1="3.875000" y1="2.525908" x2="4.375000" y2="2.237232" /><line x1="-2.625000" y1="-2.381570" x2="-2.625000" y2="-1.515544" /><line x1="4.875000" y1="2.525908" x2="5.125000" y2="2.092895" /><line x1="-3.375000" y1="-1.948557" x2="-3.125000" y2="-2.092895" /><line x1="4.875000" y1="1.948557" x2="5.125000" y2="2.092895" /><line x1="-3.375000" y1="-2.525908" x2="-3.125000" y2="-2.092895" /><line x1="5.625000" y1="2.381570" x2="5.125000" y2="2.092895" /><line x1="-3.375000" y1="-2.814583" x2="-3.375000" y2="-0.793857" /><line x1="5.125000" y1="2.092895" x2="5.375000" y2="2.525908" /><line x1="-2.875000" y1="-2.525908" x2="-3.375000" y2="-2.525908" /><line x1="5.625000" y1="2.381570" x2="5.375000" y2="2.525908" /><line x1="-3.375000" y1="-2.814583" x2="-2.875000" y2="-2.525908" /><line x1="4.875000" y1="2.814582" x2="5.375000" y2="2.525908" /><line x1="-2.875000" y1="-2.525908" x2="-2.375000" y2="-2.237232" /><line x1="5.375000" y1="2.525908" x2="4.875000" y2="2.525907" /><line x1="-3.125000" y1="-2.092895" x2="-2.875000" y2="-2.525908" /><line x1="4.875000" y1="1.948557" x2="4.875000" y2="2.814582" /><line x1="-2.625000" y1="-2.381570" x2="-3.125000" y2="-2.092895" /></g></g></g></svg>
