<?xml version="1.0" encoding="UTF-8"?>
<!DOCTYPE svg PUBLIC "-//W3C//DTD SVG 1.1//EN"
    "http://www.w3.org/Graphics/SVG/1.1/DTD/svg11.dtd">
<svg xmlns="http://www.w3.org/2000/svg" xmlns:xlink="http://www.w3.org/1999/xlink" version="1.1" width="7.00in" height="5.00in" viewBox="0 0 7.0000 5.0000"><g fill="none" stroke-width="0.0150" stroke="#000000" transform="translate(3.5000,2.5000) scale(1, -1)"><g fill="none" stroke="#ef6101"><!-- layer: hexagon --><g><g><line x1="-2.575000" y1="0.303109" x2="-2.400000" y2="0.000000" /><line x1="-2.400000" y1="0.000000" x2="-2.575000" y2="-0.303109" /><line x1="-2.575000" y1="-0.303109" x2="-2.925000" y2="-0.303109" /><line x1="-2.925000" y1="-0.303109" x2="-3.100000" y2="0.000000" /><line x1="-3.100000" y1="0.000000" x2="-2.925000" y2="0.303109" /><line x1="-2.925000" y1="0.303109" x2="-2.575000" y2="0.303109" /></g><g><line x1="-1.575000" y1="0.303109" x2="-1.400000" y2="0.000000" /><line x1="-1.400000" y1="0.000000" x2="-1.575000" y2="-0.303109" /><line x1="-1.575000" y1="-0.303109" x2="-1.925000" y2="-0.303109" /><line x1="-1.925000" y1="-0.303109" x2="-2.100000" y2="0.000000" /><line x1="-2.100000" y1="0.000000" x2="-1.925000" y2="0.303109" /><line x1="-1.925000" y1="0.303109" x2="-1.575000" y2="0.303109" /></g><g><line x1="-0.575000" y1="0.303109" x2="-0.400000" y2="0.000000" /><line x1="-0.400000" y1="0.000000" x2="-0.575000" y2="-0.303109" /><line x1="-0.575000" y1="-0.303109" x2="-0.925000" y2="-0.303109" /><line x1="-0.925000" y1="-0.303109" x2="-1.100000" y2="0.000000" /><line x1="-1.100000" y1="0.000000" x2="-0.925000" y2="0.303109" /><line x1="-0.925000" y1="0.303109" x2="-0.575000" y2="0.303109" /></g><g><line x1="0.425000" y1="0.303109" x2="0.600000" y2="0.000000" /><line x1="0.600000" y1="0.000000" x2="0.425000" y2="-0.303109" /><line x1="0.425000" y1="-0.303109" x2="0.075000" y2="-0.303109" /><line x1="0.075000" y1="-0.303109" x2="-0.100000" y2="0.000000" /><line x1="-0.100000" y1="0.000000" x2="0.075000" y2="0.303109" /><line x1="0.075000" y1="0.303109" x2="0.425000" y2="0.303109" /></g><g><line x1="1.425000" y1="0.303109" x2="1.600000" y2="0.000000" /><line x1="1.600000" y1="0.000000" x2="1.425000" y2="-0.303109" /><line x1="1.425000" y1="-0.303109" x2="1.075000" y2="-0.303109" /><line x1="1.075000" y1="-0.303109" x2="0.900000" y2="0.000000" /><line x1="0.900000" y1="0.000000" x2="1.075000" y2="0.303109" /><line x1="1.075000" y1="0.303109" x2="1.425000" y2="0.303109" /></g><g><line x1="2.425000" y1="0.303109" x2="2.600000" y2="0.000000" /><line x1="2.600000" y1="0.000000" x2="2.425000" y2="-0.303109" /><line x1="2.425000" y1="-0.303109" x2="2.075000" y2="-0.303109" /><line x1="2.075000" y1="-0.303109" x2="1.900000" y2="0.000000" /><line x1="1.900000" y1="0.000000" x2="2.075000" y2="0.303109" /><line x1="2.075000" y1="0.303109" x2="2.425000" y2="0.303109" /></g><g><line x1="-2.075000" y1="1.038109" x2="-1.900000" y2="0.735000" /><line x1="-1.900000" y1="0.735000" x2="-2.075000" y2="0.431891" /><line x1="-2.075000" y1="0.431891" x2="-2.425000" y2="0.431891" /><line x1="-2.425000" y1="0.431891" x2="-2.600000" y2="0.735000" /><line x1="-2.600000" y1="0.735000" x2="-2.425000" y2="1.038109" /><line x1="-2.425000" y1="1.038109" x2="-2.075000" y2="1.038109" /></g><g><line x1="-2.075000" y1="-0.431891" x2="-1.900000" y2="-0.735000" /><line x1="-1.900000" y1="-0.735000" x2="-2.075000" y2="-1.038109" /><line x1="-2.075000" y1="-1.038109" x2="-2.425000" y2="-1.038109" /><line x1="-2.425000" y1="-1.038109" x2="-2.600000" y2="-0.735000" /><line x1="-2.600000" y1="-0.735000" x2="-2.425000" y2="-0.431891" /><line x1="-2.425000" y1="-0.431891" x2="-2.075000" y2="-0.431891" /></g><g><line x1="-1.075000" y1="1.038109" x2="-0.900000" y2="0.735000" /><line x1="-0.900000" y1="0.735000" x2="-1.075000" y2="0.431891" /><line x1="-1.075000" y1="0.431891" x2="-1.425000" y2="0.431891" /><line x1="-1.425000" y1="0.431891" x2="-1.600000" y2="0.735000" /><line x1="-1.600000" y1="0.735000" x2="-1.425000" y2="1.038109" /><line x1="-1.425000" y1="1.038109" x2="-1.075000" y2="1.038109" /></g><g><line x1="-1.075000" y1="-0.431891" x2="-0.900000" y2="-0.735000" /><line x1="-0.900000" y1="-0.735000" x2="-1.075000" y2="-1.038109" /><line x1="-1.075000" y1="-1.038109" x2="-1.425000" y2="-1.038109" /><line x1="-1.425000" y1="-1.038109" x2="-1.600000" y2="-0.735000" /><line x1="-1.600000" y1="-0.735000" x2="-1.425000" y2="-0.431891" /><line x1="-1.425000" y1="-0.431891" x2="-1.075000" y2="-0.431891" /></g><g><line x1="-0.075000" y1="1.038109" x2="0.100000" y2="0.735000" /><line x1="0.100000" y1="0.735000" x2="-0.075000" y2="0.431891" /><line x1="-0.075000" y1="0.431891" x2="-0.425000" y2="0.431891" /><line x1="-0.425000" y1="0.431891" x2="-0.600000" y2="0.735000" /><line x1="-0.600000" y1="0.735000" x2="-0.425000" y2="1.038109" /><line x1="-0.425000" y1="1.038109" x2="-0.075000" y2="1.038109" /></g><g><line x1="-0.075000" y1="-0.431891" x2="0.100000" y2="-0.735000" /><line x1="0.100000" y1="-0.735000" x2="-0.075000" y2="-1.038109" /><line x1="-0.075000" y1="-1.038109" x2="-0.425000" y2="-1.038109" /><line x1="-0.425000" y1="-1.038109" x2="-0.600000" y2="-0.735000" /><line x1="-0.600000" y1="-0.735000" x2="-0.425000" y2="-0.431891" /><line x1="-0.425000" y1="-0.431891" x2="-0.075000" y2="-0.431891" /></g><g><line x1="0.925000" y1="1.038109" x2="1.100000" y2="0.735000" /><line x1="1.100000" y1="0.735000" x2="0.925000" y2="0.431891" /><line x1="0.925000" y1="0.431891" x2="0.575000" y2="0.431891" /><line x1="0.575000" y1="0.431891" x2="0.400000" y2="0.735000" /><line x1="0.400000" y1="0.735000" x2="0.575000" y2="1.038109" /><line x1="0.575000" y1="1.038109" x2="0.925000" y2="1.038109" /></g><g><line x1="0.925000" y1="-0.431891" x2="1.100000" y2="-0.735000" /><line x1="1.100000" y1="-0.735000" x2="0.925000" y2="-1.038109" /><line x1="0.925000" y1="-1.038109" x2="0.575000" y2="-1.038109" /><line x1="0.575000" y1="-1.038109" x2="0.400000" y2="-0.735000" /><line x1="0.400000" y1="-0.735000" x2="0.575000" y2="-0.431891" /><line x1="0.575000" y1="-0.431891" x2="0.925000" y2="-0.431891" /></g><g><line x1="1.925000" y1="1.038109" x2="2.100000" y2="0.735000" /><line x1="2.100000" y1="0.735000" x2="1.925000" y2="0.431891" /><line x1="1.925000" y1="0.431891" x2="1.575000" y2="0.431891" /><line x1="1.575000" y1="0.431891" x2="1.400000" y2="0.735000" /><line x1="1.400000" y1="0.735000" x2="1.575000" y2="1.038109" /><line x1="1.575000" y1="1.038109" x2="1.925000" y2="1.038109" /></g><g><line x1="1.925000" y1="-0.431891" x2="2.100000" y2="-0.735000" /><line x1="2.100000" y1="-0.735000" x2="1.925000" y2="-1.038109" /><line x1="1.925000" y1="-1.038109" x2="1.575000" y2="-1.038109" /><line x1="1.575000" y1="-1.038109" x2="1.400000" y2="-0.735000" /><line x1="1.400000" y1="-0.735000" x2="1.575000" y2="-0.431891" /><line x1="1.575000" y1="-0.431891" x2="1.925000" y2="-0.431891" /></g><g><line x1="2.925000" y1="1.038109" x2="3.100000" y2="0.735000" /><line x1="3.100000" y1="0.735000" x2="2.925000" y2="0.431891" /><line x1="2.925000" y1="0.431891" x2="2.575000" y2="0.431891" /><line x1="2.575000" y1="0.431891" x2="2.400000" y2="0.735000" /><line x1="2.400000" y1="0.735000" x2="2.575000" y2="1.038109" /><line x1="2.575000" y1="1.038109" x2="2.925000" y2="1.038109" /></g><g><line x1="2.925000" y1="-0.431891" x2="3.100000" y2="-0.735000" /><line x1="3.100000" y1="-0.735000" x2="2.925000" y2="-1.038109" /><line x1="2.925000" y1="-1.038109" x2="2.575000" y2="-1.038109" /><line x1="2.575000" y1="-1.038109" x2="2.400000" y2="-0.735000" /><line x1="2.400000" y1="-0.735000" x2="2.575000" y2="-0.431891" /><line x1="2.575000" y1="-0.431891" x2="2.925000" y2="-0.431891" /></g><g><line x1="-2.575000" y1="1.738109" x2="-2.400000" y2="1.435000" /><line x1="-2.400000" y1="1.435000" x2="-2.575000" y2="1.131891" /><line x1="-2.575000" y1="1.131891" x2="-2.925000" y2="1.131891" /><line x1="-2.925000" y1="1.131891" x2="-3.100000" y2="1.435000" /><line x1="-3.100000" y1="1.435000" x2="-2.925000" y2="1.738109" /><line x1="-2.925000" y1="1.738109" x2="-2.575000" y2="1.738109" /></g><g><line x1="-2.575000" y1="-1.131891" x2="-2.400000" y2="-1.435000" /><line x1="-2.400000" y1="-1.435000" x2="-2.575000" y2="-1.738109" /><line x1="-2.575000" y1="-1.738109" x2="-2.925000" y2="-1.738109" /><line x1="-2.925000" y1="-1.738109" x2="-3.100000" y2="-1.435000" /><line x1="-3.100000" y1="-1.435000" x2="-2.925000" y2="-1.131891" /><line x1="-2.925000" y1="-1.131891" x2="-2.575000" y2="-1.131891" /></g><g><line x1="-1.575000" y1="1.738109" x2="-1.400000" y2="1.435000" /><line x1="-1.400000" y1="1.435000" x2="-1.575000" y2="1.131891" /><line x1="-1.575000" y1="1.131891" x2="-1.925000" y2="1.131891" /><line x1="-1.925000" y1="1.131891" x2="-2.100000" y2="1.435000" /><line x1="-2.100000" y1="1.435000" x2="-1.925000" y2="1.738109" /><line x1="-1.925000" y1="1.738109" x2="-1.575000" y2="1.738109" /></g><g><line x1="-1.575000" y1="-1.131891" x2="-1.400000" y2="-1.435000" /><line x1="-1.400000" y1="-1.435000" x2="-1.575000" y2="-1.738109" /><line x1="-1.575000" y1="-1.738109" x2="-1.925000" y2="-1.738109" /><line x1="-1.925000" y1="-1.738109" x2="-2.100000" y2="-1.435000" /><line x1="-2.100000" y1="-1.435000" x2="-1.925000" y2="-1.131891" /><line x1="-1.925000" y1="-1.131891" x2="-1.575000" y2="-1.131891" /></g><g><line x1="-0.575000" y1="1.738109" x2="-0.400000" y2="1.435000" /><line x1="-0.400000" y1="1.435000" x2="-0.575000" y2="1.131891" /><line x1="-0.575000" y1="1.131891" x2="-0.925000" y2="1.131891" /><line x1="-0.925000" y1="1.131891" x2="-1.100000" y2="1.435000" /><line x1="-1.100000" y1="1.435000" x2="-0.925000" y2="1.738109" /><line x1="-0.925000" y1="1.738109" x2="-0.575000" y2="1.738109" /></g><g><line x1="-0.575000" y1="-1.131891" x2="-0.400000" y2="-1.435000" /><line x1="-0.400000" y1="-1.435000" x2="-0.575000" y2="-1.738109" /><line x1="-0.575000" y1="-1.738109" x2="-0.925000" y2="-1.738109" /><line x1="-0.925000" y1="-1.738109" x2="-1.100000" y2="-1.435000" /><line x1="-1.100000" y1="-1.435000" x2="-0.925000" y2="-1.131891" /><line x1="-0.925000" y1="-1.131891" x2="-0.575000" y2="-1.131891" /></g><g><line x1="0.425000" y1="1.738109" x2="0.600000" y2="1.435000" /><line x1="0.600000" y1="1.435000" x2="0.425000" y2="1.131891" /><line x1="0.425000" y1="1.131891" x2="0.075000" y2="1.131891" /><line x1="0.075000" y1="1.131891" x2="-0.100000" y2="1.435000" /><line x1="-0.100000" y1="1.435000" x2="0.075000" y2="1.738109" /><line x1="0.075000" y1="1.738109" x2="0.425000" y2="1.738109" /></g><g><line x1="0.425000" y1="-1.131891" x2="0.600000" y2="-1.435000" /><line x1="0.600000" y1="-1.435000" x2="0.425000" y2="-1.738109" /><line x1="0.425000" y1="-1.738109" x2="0.075000" y2="-1.738109" /><line x1="0.075000" y1="-1.738109" x2="-0.100000" y2="-1.435000" /><line x1="-0.100000" y1="-1.435000" x2="0.075000" y2="-1.131891" /><line x1="0.075000" y1="-1.131891" x2="0.425000" y2="-1.131891" /></g><g><line x1="1.425000" y1="1.738109" x2="1.600000" y2="1.435000" /><line x1="1.600000" y1="1.435000" x2="1.425000" y2="1.131891" /><line x1="1.425000" y1="1.131891" x2="1.075000" y2="1.131891" /><line x1="1.075000" y1="1.131891" x2="0.900000" y2="1.435000" /><line x1="0.900000" y1="1.435000" x2="1.075000" y2="1.738109" /><line x1="1.075000" y1="1.738109" x2="1.425000" y2="1.738109" /></g><g><line x1="1.425000" y1="-1.131891" x2="1.600000" y2="-1.435000" /><line x1="1.600000" y1="-1.435000" x2="1.425000" y2="-1.738109" /><line x1="1.425000" y1="-1.738109" x2="1.075000" y2="-1.738109" /><line x1="1.075000" y1="-1.738109" x2="0.900000" y2="-1.435000" /><line x1="0.900000" y1="-1.435000" x2="1.075000" y2="-1.131891" /><line x1="1.075000" y1="-1.131891" x2="1.425000" y2="-1.131891" /></g><g><line x1="2.425000" y1="1.738109" x2="2.600000" y2="1.435000" /><line x1="2.600000" y1="1.435000" x2="2.425000" y2="1.131891" /><line x1="2.425000" y1="1.131891" x2="2.075000" y2="1.131891" /><line x1="2.075000" y1="1.131891" x2="1.900000" y2="1.435000" /><line x1="1.900000" y1="1.435000" x2="2.075000" y2="1.738109" /><line x1="2.075000" y1="1.738109" x2="2.425000" y2="1.738109" /></g><g><line x1="2.425000" y1="-1.131891" x2="2.600000" y2="-1.435000" /><line x1="2.600000" y1="-1.435000" x2="2.425000" y2="-1.738109" /><line x1="2.425000" y1="-1.738109" x2="2.075000" y2="-1.738109" /><line x1="2.075000" y1="-1.738109" x2="1.900000" y2="-1.435000" /><line x1="1.900000" y1="-1.435000" x2="2.075000" y2="-1.131891" /><line x1="2.075000" y1="-1.131891" x2="2.425000" y2="-1.131891" /></g></g></g><g fill="none" stroke="#045658"><!-- layer: arcs --><g><path d="m-2.7500,0.4025 A0.4025,0.4025 0 0,1 -3.1525,-0.0000" /><path d="m-1.7500,0.4025 A0.4025,0.4025 0 0,1 -2.1525,-0.0000" /><path d="m-0.7500,0.4025 A0.4025,0.4025 0 0,1 -1.1525,-0.0000" /><path d="m0.2500,0.4025 A0.4025,0.4025 0 0,1 -0.1525,-0.0000" /><path d="m1.2500,0.4025 A0.4025,0.4025 0 0,1 0.8475,-0.0000" /><path d="m2.2500,0.4025 A0.4025,0.4025 0 0,1 1.8475,-0.0000" /><path d="m-2.2500,1.1375 A0.4025,0.4025 0 0,1 -2.6525,0.7350" /><path d="m-2.2500,-0.3325 A0.4025,0.4025 0 0,1 -2.6525,-0.7350" /><path d="m-1.2500,1.1375 A0.4025,0.4025 0 0,1 -1.6525,0.7350" /><path d="m-1.2500,-0.3325 A0.4025,0.4025 0 0,1 -1.6525,-0.7350" /><path d="m-0.2500,1.1375 A0.4025,0.4025 0 0,1 -0.6525,0.7350" /><path d="m-0.2500,-0.3325 A0.4025,0.4025 0 0,1 -0.6525,-0.7350" /><path d="m0.7500,1.1375 A0.4025,0.4025 0 0,1 0.3475,0.7350" /><path d="m0.7500,-0.3325 A0.4025,0.4025 0 0,1 0.3475,-0.7350" /><path d="m1.7500,1.1375 A0.4025,0.4025 0 0,1 1.3475,0.7350" /><path d="m1.7500,-0.3325 A0.4025,0.4025 0 0,1 1.3475,-0.7350" /><path d="m2.7500,1.1375 A0.4025,0.4025 0 0,1 2.3475,0.7350" /><path d="m2.7500,-0.3325 A0.4025,0.4025 0 0,1 2.3475,-0.7350" /><path d="m-2.7500,1.8375 A0.4025,0.4025 0 0,1 -3.1525,1.4350" /><path d="m-2.7500,-1.0325 A0.4025,0.4025 0 0,1 -3.1525,-1.4350" /><path d="m-1.7500,1.8375 A0.4025,0.4025 0 0,1 -2.1525,1.4350" /><path d="m-1.7500,-1.0325 A0.4025,0.4025 0 0,1 -2.1525,-1.4350" /><path d="m-0.7500,1.8375 A0.4025,0.4025 0 0,1 -1.1525,1.4350" /><path d="m-0.7500,-1.0325 A0.4025,0.4025 0 0,1 -1.1525,-1.4350" /><path d="m0.2500,1.8375 A0.4025,0.4025 0 0,1 -0.1525,1.4350" /><path d="m0.2500,-1.0325 A0.4025,0.4025 0 0,1 -0.1525,-1.4350" /><path d="m1.2500,1.8375 A0.4025,0.4025 0 0,1 0.8475,1.4350" /><path d="m1.2500,-1.0325 A0.4025,0.4025 0 0,1 0.8475,-1.4350" /><path d="m2.2500,1.8375 A0.4025,0.4025 0 0,1 1.8475,1.4350" /><path d="m2.2500,-1.0325 A0.4025,0.4025 0 0,1 1.8475,-1.4350" /><path d="m-2.7500,-0.4200 A0.4200,0.4200 0 0,1 -2.3300,0.0000" /><path d="m-1.7500,-0.4200 A0.4200,0.4200 0 0,1 -1.3300,0.0000" /><path d="m-0.7500,-0.4200 A0.4200,0.4200 0 0,1 -0.3300,0.0000" /><path d="m0.2500,-0.4200 A0.4200,0.4200 0 0,1 0.6700,0.0000" /><path d="m1.2500,-0.4200 A0.4200,0.4200 0 0,1 1.6700,0.0000" /><path d="m2.2500,-0.4200 A0.4200,0.4200 0 0,1 2.6700,0.0000" /><path d="m-2.2500,0.3150 A0.4200,0.4200 0 0,1 -1.8300,0.7350" /><path d="m-2.2500,-1.1550 A0.4200,0.4200 0 0,1 -1.8300,-0.7350" /><path d="m-1.2500,0.3150 A0.4200,0.4200 0 0,1 -0.8300,0.7350" /><path d="m-1.2500,-1.1550 A0.4200,0.4200 0 0,1 -0.8300,-0.7350" /><path d="m-0.2500,0.3150 A0.4200,0.4200 0 0,1 0.1700,0.7350" /><path d="m-0.2500,-1.1550 A0.4200,0.4200 0 0,1 0.1700,-0.7350" /><path d="m0.7500,0.3150 A0.4200,0.4200 0 0,1 1.1700,0.7350" /><path d="m0.7500,-1.1550 A0.4200,0.4200 0 0,1 1.1700,-0.7350" /><path d="m1.7500,0.3150 A0.4200,0.4200 0 0,1 2.1700,0.7350" /><path d="m1.7500,-1.1550 A0.4200,0.4200 0 0,1 2.1700,-0.7350" /><path d="m2.7500,0.3150 A0.4200,0.4200 0 0,1 3.1700,0.7350" /><path d="m2.7500,-1.1550 A0.4200,0.4200 0 0,1 3.1700,-0.7350" /><path d="m-2.7500,1.0150 A0.4200,0.4200 0 0,1 -2.3300,1.4350" /><path d="m-2.7500,-1.8550 A0.4200,0.4200 0 0,1 -2.3300,-1.4350" /><path d="m-1.7500,1.0150 A0.4200,0.4200 0 0,1 -1.3300,1.4350" /><path d="m-1.7500,-1.8550 A0.4200,0.4200 0 0,1 -1.3300,-1.4350" /><path d="m-0.7500,1.0150 A0.4200,0.4200 0 0,1 -0.3300,1.4350" /><path d="m-0.7500,-1.8550 A0.4200,0.4200 0 0,1 -0.3300,-1.4350" /><path d="m0.2500,1.0150 A0.4200,0.4200 0 0,1 0.6700,1.4350" /><path d="m0.2500,-1.8550 A0.4200,0.4200 0 0,1 0.6700,-1.4350" /><path d="m1.2500,1.0150 A0.4200,0.4200 0 0,1 1.6700,1.4350" /><path d="m1.2500,-1.8550 A0.4200,0.4200 0 0,1 1.6700,-1.4350" /><path d="m2.2500,1.0150 A0.4200,0.4200 0 0,1 2.6700,1.4350" /><path d="m2.2500,-1.8550 A0.4200,0.4200 0 0,1 2.6700,-1.4350" /></g></g><g fill="none" stroke="#045658"><!-- layer: lines --><g><line x1="-2.330000" y1="0.000000" x2="-2.152500" y2="-0.000000" /><line x1="-1.330000" y1="0.000000" x2="-1.152500" y2="-0.000000" /><line x1="-0.330000" y1="0.000000" x2="-0.152500" y2="-0.000000" /><line x1="0.670000" y1="0.000000" x2="0.847500" y2="-0.000000" /><line x1="1.670000" y1="0.000000" x2="1.847500" y2="-0.000000" /><line x1="-1.840000" y1="0.735000" x2="-1.662500" y2="0.735000" /><line x1="-1.840000" y1="-0.735000" x2="-1.662500" y2="-0.735000" /><line x1="-0.840000" y1="0.735000" x2="-0.662500" y2="0.735000" /><line x1="-0.840000" y1="-0.735000" x2="-0.662500" y2="-0.735000" /><line x1="0.160000" y1="0.735000" x2="0.337500" y2="0.735000" /><line x1="0.160000" y1="-0.735000" x2="0.337500" y2="-0.735000" /><line x1="1.160000" y1="0.735000" x2="1.337500" y2="0.735000" /><line x1="1.160000" y1="-0.735000" x2="1.337500" y2="-0.735000" /><line x1="2.160000" y1="0.735000" x2="2.337500" y2="0.735000" /><line x1="2.160000" y1="-0.735000" x2="2.337500" y2="-0.735000" /><line x1="-2.330000" y1="1.435000" x2="-2.152500" y2="1.435000" /><line x1="-2.330000" y1="-1.435000" x2="-2.152500" y2="-1.435000" /><line x1="-1.330000" y1="1.435000" x2="-1.152500" y2="1.435000" /><line x1="-1.330000" y1="-1.435000" x2="-1.152500" y2="-1.435000" /><line x1="-0.330000" y1="1.435000" x2="-0.152500" y2="1.435000" /><line x1="-0.330000" y1="-1.435000" x2="-0.152500" y2="-1.435000" /><line x1="0.670000" y1="1.435000" x2="0.847500" y2="1.435000" /><line x1="0.670000" y1="-1.435000" x2="0.847500" y2="-1.435000" /><line x1="1.670000" y1="1.435000" x2="1.847500" y2="1.435000" /><line x1="1.670000" y1="-1.435000" x2="1.847500" y2="-1.435000" /></g></g></g></svg>
