<?xml version="1.0" encoding="UTF-8"?>
<!DOCTYPE svg PUBLIC "-//W3C//DTD SVG 1.1//EN"
    "http://www.w3.org/Graphics/SVG/1.1/DTD/svg11.dtd">
<svg xmlns="http://www.w3.org/2000/svg" xmlns:xlink="http://www.w3.org/1999/xlink" version="1.1" width="12.00in" height="7.00in" viewBox="0 0 12.0000 7.0000"><g fill="none" stroke-width="0.0300" stroke="#03161d" transform="translate(6.0000,3.5000) scale(1, -1)"><g><!-- layer: layer-1 --><g><line x1="-1.500000" y1="3.000000" x2="-1.211325" y2="2.500000" /><line x1="0.275000" y1="-3.000000" x2="0.408975" y2="-2.500000" /><line x1="-1.620300" y1="3.000000" x2="-1.486325" y2="2.500000" /><line x1="0.395299" y1="-3.000000" x2="0.683974" y2="-2.500000" /><line x1="-1.500000" y1="2.000000" x2="-1.211325" y2="2.500000" /><line x1="0.275000" y1="-2.000000" x2="0.408975" y2="-2.500000" /><line x1="-1.620300" y1="2.000000" x2="-1.486325" y2="2.500000" /><line x1="0.395299" y1="-2.000000" x2="0.683974" y2="-2.500000" /><line x1="-1.500000" y1="2.000000" x2="-1.211325" y2="1.500000" /><line x1="0.275000" y1="-2.000000" x2="0.408975" y2="-1.500000" /><line x1="-1.620300" y1="2.000000" x2="-1.486325" y2="1.500000" /><line x1="0.395299" y1="-2.000000" x2="0.683974" y2="-1.500000" /><line x1="-1.500000" y1="1.000000" x2="-1.211325" y2="1.500000" /><line x1="0.275000" y1="-1.000000" x2="0.408975" y2="-1.500000" /><line x1="-1.620300" y1="1.000000" x2="-1.486325" y2="1.500000" /><line x1="0.395299" y1="-1.000000" x2="0.683974" y2="-1.500000" /><line x1="-1.500000" y1="1.000000" x2="-1.211325" y2="0.500000" /><line x1="0.275000" y1="-1.000000" x2="0.408975" y2="-0.500000" /><line x1="-1.620300" y1="1.000000" x2="-1.486325" y2="0.500000" /><line x1="0.395299" y1="-1.000000" x2="0.683974" y2="-0.500000" /><line x1="-1.500000" y1="0.000000" x2="-1.211325" y2="0.500000" /><line x1="0.275000" y1="0.000000" x2="0.408975" y2="-0.500000" /><line x1="-1.620300" y1="0.000000" x2="-1.486325" y2="0.500000" /><line x1="0.395299" y1="0.000000" x2="0.683974" y2="-0.500000" /><line x1="0.000000" y1="0.000000" x2="0.288675" y2="-0.500000" /><line x1="0.000000" y1="0.000000" x2="0.288675" y2="0.500000" /><line x1="-1.500000" y1="0.000000" x2="-1.211325" y2="-0.500000" /><line x1="0.275000" y1="0.000000" x2="0.408975" y2="0.500000" /><line x1="-1.620300" y1="0.000000" x2="-1.486325" y2="-0.500000" /><line x1="0.395299" y1="0.000000" x2="0.683974" y2="0.500000" /><line x1="0.000000" y1="-1.000000" x2="0.288675" y2="-0.500000" /><line x1="0.000000" y1="1.000000" x2="0.288675" y2="0.500000" /><line x1="-1.500000" y1="-1.000000" x2="-1.211325" y2="-0.500000" /><line x1="0.275000" y1="1.000000" x2="0.408975" y2="0.500000" /><line x1="-1.620300" y1="-1.000000" x2="-1.486325" y2="-0.500000" /><line x1="0.395299" y1="1.000000" x2="0.683974" y2="0.500000" /><line x1="0.000000" y1="-1.000000" x2="0.288675" y2="-1.500000" /><line x1="0.000000" y1="1.000000" x2="0.288675" y2="1.500000" /><line x1="-1.500000" y1="-1.000000" x2="-1.211325" y2="-1.500000" /><line x1="0.275000" y1="1.000000" x2="0.408975" y2="1.500000" /><line x1="-1.620300" y1="-1.000000" x2="-1.486325" y2="-1.500000" /><line x1="0.395299" y1="1.000000" x2="0.683974" y2="1.500000" /><line x1="0.000000" y1="-2.000000" x2="0.288675" y2="-1.500000" /><line x1="0.000000" y1="2.000000" x2="0.288675" y2="1.500000" /><line x1="-1.500000" y1="-2.000000" x2="-1.211325" y2="-1.500000" /><line x1="0.275000" y1="2.000000" x2="0.408975" y2="1.500000" /><line x1="-1.620300" y1="-2.000000" x2="-1.486325" y2="-1.500000" /><line x1="0.395299" y1="2.000000" x2="0.683974" y2="1.500000" /><line x1="0.000000" y1="-2.000000" x2="0.288675" y2="-2.500000" /><line x1="0.000000" y1="2.000000" x2="0.288675" y2="2.500000" /><line x1="-1.500000" y1="-2.000000" x2="-1.211325" y2="-2.500000" /><line x1="0.275000" y1="2.000000" x2="0.408975" y2="2.500000" /><line x1="-1.620300" y1="-2.000000" x2="-1.486325" y2="-2.500000" /><line x1="0.395299" y1="2.000000" x2="0.683974" y2="2.500000" /><line x1="0.000000" y1="-3.000000" x2="0.288675" y2="-2.500000" /><line x1="0.000000" y1="3.000000" x2="0.288675" y2="2.500000" /><line x1="-1.500000" y1="-3.000000" x2="-1.211325" y2="-2.500000" /><line x1="0.275000" y1="3.000000" x2="0.408975" y2="2.500000" /><line x1="-1.620300" y1="-3.000000" x2="-1.486325" y2="-2.500000" /><line x1="0.395299" y1="3.000000" x2="0.683974" y2="2.500000" /><line x1="-1.895299" y1="3.000000" x2="-1.606624" y2="2.500000" /><line x1="1.895299" y1="-3.000000" x2="2.183974" y2="-2.500000" /><line x1="-3.395299" y1="3.000000" x2="-3.106624" y2="2.500000" /><line x1="2.170300" y1="-3.000000" x2="2.304274" y2="-2.500000" /><line x1="-3.515599" y1="3.000000" x2="-3.381624" y2="2.500000" /><line x1="3.790599" y1="-3.000000" x2="4.079274" y2="-2.500000" /><line x1="-3.790599" y1="3.000000" x2="-3.501924" y2="2.500000" /><line x1="2.290599" y1="-3.000000" x2="2.579274" y2="-2.500000" /><line x1="-1.895299" y1="2.000000" x2="-1.606624" y2="2.500000" /><line x1="1.895299" y1="-2.000000" x2="2.183974" y2="-2.500000" /><line x1="-3.395299" y1="2.000000" x2="-3.106624" y2="2.500000" /><line x1="2.170300" y1="-2.000000" x2="2.304274" y2="-2.500000" /><line x1="-3.515599" y1="2.000000" x2="-3.381624" y2="2.500000" /><line x1="0.288675" y1="-2.500000" x2="4.079274" y2="-2.500000" /><line x1="-3.501924" y1="2.500000" x2="0.288675" y2="2.500000" /><line x1="3.790599" y1="-2.000000" x2="4.079274" y2="-2.500000" /><line x1="-3.790599" y1="2.000000" x2="-3.501924" y2="2.500000" /><line x1="2.290599" y1="-2.000000" x2="2.579274" y2="-2.500000" /><line x1="-1.895299" y1="2.000000" x2="-1.606624" y2="1.500000" /><line x1="1.895299" y1="-2.000000" x2="2.183974" y2="-1.500000" /><line x1="-3.395299" y1="2.000000" x2="-3.106624" y2="1.500000" /><line x1="2.170300" y1="-2.000000" x2="2.304274" y2="-1.500000" /><line x1="-3.515599" y1="2.000000" x2="-3.381624" y2="1.500000" /><line x1="3.790599" y1="-2.000000" x2="4.079274" y2="-1.500000" /><line x1="-3.790599" y1="2.000000" x2="-3.501924" y2="1.500000" /><line x1="2.290599" y1="-2.000000" x2="2.579274" y2="-1.500000" /><line x1="-1.895299" y1="1.000000" x2="-1.606624" y2="1.500000" /><line x1="1.895299" y1="-1.000000" x2="2.183974" y2="-1.500000" /><line x1="-3.395299" y1="1.000000" x2="-3.106624" y2="1.500000" /><line x1="2.170300" y1="-1.000000" x2="2.304274" y2="-1.500000" /><line x1="-3.515599" y1="1.000000" x2="-3.381624" y2="1.500000" /><line x1="0.288675" y1="-1.500000" x2="4.079274" y2="-1.500000" /><line x1="-3.501924" y1="1.500000" x2="0.288675" y2="1.500000" /><line x1="3.790599" y1="-1.000000" x2="4.079274" y2="-1.500000" /><line x1="-3.790599" y1="1.000000" x2="-3.501924" y2="1.500000" /><line x1="2.290599" y1="-1.000000" x2="2.579274" y2="-1.500000" /><line x1="-1.895299" y1="1.000000" x2="-1.606624" y2="0.500000" /><line x1="1.895299" y1="-1.000000" x2="2.183974" y2="-0.500000" /><line x1="-3.395299" y1="1.000000" x2="-3.106624" y2="0.500000" /><line x1="2.170300" y1="-1.000000" x2="2.304274" y2="-0.500000" /><line x1="-3.515599" y1="1.000000" x2="-3.381624" y2="0.500000" /><line x1="3.790599" y1="-1.000000" x2="4.079274" y2="-0.500000" /><line x1="-3.790599" y1="1.000000" x2="-3.501924" y2="0.500000" /><line x1="2.290599" y1="-1.000000" x2="2.579274" y2="-0.500000" /><line x1="-1.895299" y1="0.000000" x2="-1.606624" y2="0.500000" /><line x1="1.895299" y1="0.000000" x2="2.183974" y2="-0.500000" /><line x1="-3.395299" y1="0.000000" x2="-3.106624" y2="0.500000" /><line x1="2.170300" y1="0.000000" x2="2.304274" y2="-0.500000" /><line x1="-3.515599" y1="0.000000" x2="-3.381624" y2="0.500000" /><line x1="0.288675" y1="-0.500000" x2="4.079274" y2="-0.500000" /><line x1="-3.501924" y1="0.500000" x2="0.288675" y2="0.500000" /><line x1="3.790599" y1="0.000000" x2="4.079274" y2="-0.500000" /><line x1="-3.790599" y1="0.000000" x2="-3.501924" y2="0.500000" /><line x1="2.290599" y1="0.000000" x2="2.579274" y2="-0.500000" /><line x1="-1.895299" y1="0.000000" x2="-1.606624" y2="-0.500000" /><line x1="1.895299" y1="0.000000" x2="2.183974" y2="0.500000" /><line x1="-3.395299" y1="0.000000" x2="-3.106624" y2="-0.500000" /><line x1="2.170300" y1="0.000000" x2="2.304274" y2="0.500000" /><line x1="-3.515599" y1="0.000000" x2="-3.381624" y2="-0.500000" /><line x1="3.790599" y1="0.000000" x2="4.079274" y2="0.500000" /><line x1="-3.790599" y1="0.000000" x2="-3.501924" y2="-0.500000" /><line x1="2.290599" y1="0.000000" x2="2.579274" y2="0.500000" /><line x1="-3.790599" y1="0.000000" x2="3.790599" y2="0.000000" /><line x1="1.895299" y1="1.000000" x2="2.183974" y2="0.500000" /><line x1="-1.895299" y1="-1.000000" x2="-1.606624" y2="-0.500000" /><line x1="2.170300" y1="1.000000" x2="2.304274" y2="0.500000" /><line x1="-3.395299" y1="-1.000000" x2="-3.106624" y2="-0.500000" /><line x1="0.288675" y1="0.500000" x2="4.079274" y2="0.500000" /><line x1="-3.515599" y1="-1.000000" x2="-3.381624" y2="-0.500000" /><line x1="3.790599" y1="1.000000" x2="4.079274" y2="0.500000" /><line x1="-3.501924" y1="-0.500000" x2="0.288675" y2="-0.500000" /><line x1="2.290599" y1="1.000000" x2="2.579274" y2="0.500000" /><line x1="-3.790599" y1="-1.000000" x2="-3.501924" y2="-0.500000" /><line x1="1.895299" y1="1.000000" x2="2.183974" y2="1.500000" /><line x1="-1.895299" y1="-1.000000" x2="-1.606624" y2="-1.500000" /><line x1="2.170300" y1="1.000000" x2="2.304274" y2="1.500000" /><line x1="-3.395299" y1="-1.000000" x2="-3.106624" y2="-1.500000" /><line x1="-3.790599" y1="1.000000" x2="3.790599" y2="1.000000" /><line x1="-3.515599" y1="-1.000000" x2="-3.381624" y2="-1.500000" /><line x1="3.790599" y1="1.000000" x2="4.079274" y2="1.500000" /><line x1="-3.790599" y1="-1.000000" x2="-3.501924" y2="-1.500000" /><line x1="2.290599" y1="1.000000" x2="2.579274" y2="1.500000" /><line x1="-3.790599" y1="-1.000000" x2="3.790599" y2="-1.000000" /><line x1="1.895299" y1="2.000000" x2="2.183974" y2="1.500000" /><line x1="-1.895299" y1="-2.000000" x2="-1.606624" y2="-1.500000" /><line x1="2.170300" y1="2.000000" x2="2.304274" y2="1.500000" /><line x1="-3.395299" y1="-2.000000" x2="-3.106624" y2="-1.500000" /><line x1="0.288675" y1="1.500000" x2="4.079274" y2="1.500000" /><line x1="-3.515599" y1="-2.000000" x2="-3.381624" y2="-1.500000" /><line x1="3.790599" y1="2.000000" x2="4.079274" y2="1.500000" /><line x1="-3.501924" y1="-1.500000" x2="0.288675" y2="-1.500000" /><line x1="2.290599" y1="2.000000" x2="2.579274" y2="1.500000" /><line x1="-3.790599" y1="-2.000000" x2="-3.501924" y2="-1.500000" /><line x1="1.895299" y1="2.000000" x2="2.183974" y2="2.500000" /><line x1="-1.895299" y1="-2.000000" x2="-1.606624" y2="-2.500000" /><line x1="2.170300" y1="2.000000" x2="2.304274" y2="2.500000" /><line x1="-3.395299" y1="-2.000000" x2="-3.106624" y2="-2.500000" /><line x1="-3.790599" y1="2.000000" x2="3.790599" y2="2.000000" /><line x1="-3.515599" y1="-2.000000" x2="-3.381624" y2="-2.500000" /><line x1="3.790599" y1="2.000000" x2="4.079274" y2="2.500000" /><line x1="-3.790599" y1="-2.000000" x2="-3.501924" y2="-2.500000" /><line x1="2.290599" y1="2.000000" x2="2.579274" y2="2.500000" /><line x1="-3.790599" y1="-2.000000" x2="3.790599" y2="-2.000000" /><line x1="1.895299" y1="3.000000" x2="2.183974" y2="2.500000" /><line x1="-1.895299" y1="-3.000000" x2="-1.606624" y2="-2.500000" /><line x1="2.170300" y1="3.000000" x2="2.304274" y2="2.500000" /><line x1="-3.395299" y1="-3.000000" x2="-3.106624" y2="-2.500000" /><line x1="-3.790599" y1="3.000000" x2="3.790599" y2="3.000000" /><line x1="-3.515599" y1="-3.000000" x2="-3.381624" y2="-2.500000" /><line x1="0.288675" y1="2.500000" x2="4.079274" y2="2.500000" /><line x1="-3.501924" y1="-2.500000" x2="0.288675" y2="-2.500000" /><line x1="3.790599" y1="3.000000" x2="4.079274" y2="2.500000" /><line x1="-3.790599" y1="-3.000000" x2="-3.501924" y2="-2.500000" /><line x1="2.290599" y1="3.000000" x2="2.579274" y2="2.500000" /><line x1="-3.790599" y1="-3.000000" x2="3.790599" y2="-3.000000" /></g></g></g></svg>
