<?xml version="1.0" encoding="UTF-8"?>
<!DOCTYPE svg PUBLIC "-//W3C//DTD SVG 1.1//EN"
    "http://www.w3.org/Graphics/SVG/1.1/DTD/svg11.dtd">
<svg xmlns="http://www.w3.org/2000/svg" xmlns:xlink="http://www.w3.org/1999/xlink" version="1.1" width="8.00in" height="3.00in" viewBox="0 0 8.0000 3.0000"><title>huffman_tower</title><g fill="none" stroke-width="0.0500" stroke="#03161d" transform="translate(4.0000,1.5000) scale(1, -1)"><g><g><line x1="-3.500000" y1="1.299038" x2="3.500000" y2="1.299038" /><line x1="-3.500000" y1="-1.299038" x2="3.500000" y2="-1.299038" /><line x1="-3.500000" y1="1.299038" x2="-3.500000" y2="-1.299038" /><line x1="3.500000" y1="1.299038" x2="3.500000" y2="-1.299038" /></g><path d="m-3.0000,0.8660 A1.0000,1.0000 0 0,1 -3.5000,-0.0000" /><path d="m-3.0000,0.2500 A0.2500,0.2500 0 0,1 -3.2500,-0.0000" /><path d="m-3.5000,-0.8660 A1.0000,1.0000 0 0,1 -3.0000,0.0000" /><path d="m-3.5000,-0.2500 A0.2500,0.2500 0 0,1 -3.2500,0.0000" /><path d="m-2.5000,0.0000 A1.0000,1.0000 0 0,1 -3.0000,0.8660" /><path d="m-2.7500,0.0000 A0.2500,0.2500 0 0,1 -3.0000,0.2500" /><path d="m-3.0000,0.0000 A1.0000,1.0000 0 0,1 -2.5000,-0.8660" /><path d="m-2.7500,0.0000 A0.2500,0.2500 0 0,1 -2.5000,-0.2500" /><path d="m-2.0000,0.8660 A1.0000,1.0000 0 0,1 -2.5000,-0.0000" /><path d="m-2.0000,0.2500 A0.2500,0.2500 0 0,1 -2.2500,-0.0000" /><path d="m-2.5000,-0.8660 A1.0000,1.0000 0 0,1 -2.0000,0.0000" /><path d="m-2.5000,-0.2500 A0.2500,0.2500 0 0,1 -2.2500,0.0000" /><path d="m-1.5000,0.0000 A1.0000,1.0000 0 0,1 -2.0000,0.8660" /><path d="m-1.7500,0.0000 A0.2500,0.2500 0 0,1 -2.0000,0.2500" /><path d="m-2.0000,0.0000 A1.0000,1.0000 0 0,1 -1.5000,-0.8660" /><path d="m-1.7500,0.0000 A0.2500,0.2500 0 0,1 -1.5000,-0.2500" /><path d="m-1.0000,0.8660 A1.0000,1.0000 0 0,1 -1.5000,-0.0000" /><path d="m-1.0000,0.2500 A0.2500,0.2500 0 0,1 -1.2500,-0.0000" /><path d="m-1.5000,-0.8660 A1.0000,1.0000 0 0,1 -1.0000,0.0000" /><path d="m-1.5000,-0.2500 A0.2500,0.2500 0 0,1 -1.2500,0.0000" /><path d="m-0.5000,0.0000 A1.0000,1.0000 0 0,1 -1.0000,0.8660" /><path d="m-0.7500,0.0000 A0.2500,0.2500 0 0,1 -1.0000,0.2500" /><path d="m-1.0000,0.0000 A1.0000,1.0000 0 0,1 -0.5000,-0.8660" /><path d="m-0.7500,0.0000 A0.2500,0.2500 0 0,1 -0.5000,-0.2500" /><path d="m-0.0000,0.8660 A1.0000,1.0000 0 0,1 -0.5000,-0.0000" /><path d="m-0.0000,0.2500 A0.2500,0.2500 0 0,1 -0.2500,-0.0000" /><path d="m-0.5000,-0.8660 A1.0000,1.0000 0 0,1 0.0000,0.0000" /><path d="m-0.5000,-0.2500 A0.2500,0.2500 0 0,1 -0.2500,0.0000" /><path d="m0.5000,0.0000 A1.0000,1.0000 0 0,1 -0.0000,0.8660" /><path d="m0.2500,0.0000 A0.2500,0.2500 0 0,1 -0.0000,0.2500" /><path d="m0.0000,0.0000 A1.0000,1.0000 0 0,1 0.5000,-0.8660" /><path d="m0.2500,0.0000 A0.2500,0.2500 0 0,1 0.5000,-0.2500" /><path d="m1.0000,0.8660 A1.0000,1.0000 0 0,1 0.5000,-0.0000" /><path d="m1.0000,0.2500 A0.2500,0.2500 0 0,1 0.7500,-0.0000" /><path d="m0.5000,-0.8660 A1.0000,1.0000 0 0,1 1.0000,0.0000" /><path d="m0.5000,-0.2500 A0.2500,0.2500 0 0,1 0.7500,0.0000" /><path d="m1.5000,0.0000 A1.0000,1.0000 0 0,1 1.0000,0.8660" /><path d="m1.2500,0.0000 A0.2500,0.2500 0 0,1 1.0000,0.2500" /><path d="m1.0000,0.0000 A1.0000,1.0000 0 0,1 1.5000,-0.8660" /><path d="m1.2500,0.0000 A0.2500,0.2500 0 0,1 1.5000,-0.2500" /><path d="m2.0000,0.8660 A1.0000,1.0000 0 0,1 1.5000,-0.0000" /><path d="m2.0000,0.2500 A0.2500,0.2500 0 0,1 1.7500,-0.0000" /><path d="m1.5000,-0.8660 A1.0000,1.0000 0 0,1 2.0000,0.0000" /><path d="m1.5000,-0.2500 A0.2500,0.2500 0 0,1 1.7500,0.0000" /><path d="m2.5000,0.0000 A1.0000,1.0000 0 0,1 2.0000,0.8660" /><path d="m2.2500,0.0000 A0.2500,0.2500 0 0,1 2.0000,0.2500" /><path d="m2.0000,0.0000 A1.0000,1.0000 0 0,1 2.5000,-0.8660" /><path d="m2.2500,0.0000 A0.2500,0.2500 0 0,1 2.5000,-0.2500" /><path d="m3.0000,0.8660 A1.0000,1.0000 0 0,1 2.5000,-0.0000" /><path d="m3.0000,0.2500 A0.2500,0.2500 0 0,1 2.7500,-0.0000" /><path d="m2.5000,-0.8660 A1.0000,1.0000 0 0,1 3.0000,0.0000" /><path d="m2.5000,-0.2500 A0.2500,0.2500 0 0,1 2.7500,0.0000" /><path d="m3.5000,0.0000 A1.0000,1.0000 0 0,1 3.0000,0.8660" /><path d="m3.2500,0.0000 A0.2500,0.2500 0 0,1 3.0000,0.2500" /><path d="m3.0000,0.0000 A1.0000,1.0000 0 0,1 3.5000,-0.8660" /><path d="m3.2500,0.0000 A0.2500,0.2500 0 0,1 3.5000,-0.2500" /><line x1="0.000000" y1="0.840045" x2="0.000000" y2="1.299038" /><line x1="0.500000" y1="-0.840045" x2="0.500000" y2="-1.299038" /><line x1="-0.500000" y1="-0.840045" x2="-0.500000" y2="-1.299038" /><line x1="1.000000" y1="0.840045" x2="1.000000" y2="1.299038" /><line x1="-1.000000" y1="0.840045" x2="-1.000000" y2="1.299038" /><line x1="1.500000" y1="-0.840045" x2="1.500000" y2="-1.299038" /><line x1="-1.500000" y1="-0.840045" x2="-1.500000" y2="-1.299038" /><line x1="2.000000" y1="0.840045" x2="2.000000" y2="1.299038" /><line x1="-2.000000" y1="0.840045" x2="-2.000000" y2="1.299038" /><line x1="2.500000" y1="-0.840045" x2="2.500000" y2="-1.299038" /><line x1="-2.500000" y1="-0.840045" x2="-2.500000" y2="-1.299038" /><line x1="3.000000" y1="0.840045" x2="3.000000" y2="1.299038" /><line x1="-3.500000" y1="-0.840045" x2="-3.500000" y2="-1.299038" /><line x1="-3.520000" y1="-0.866025" x2="3.520000" y2="-0.866025" /><line x1="-3.000000" y1="0.840045" x2="-3.000000" y2="1.299038" /><line x1="3.500000" y1="-0.840045" x2="3.500000" y2="-1.299038" /><line x1="-3.500000" y1="0.866025" x2="3.500000" y2="0.866025" /></g></g></svg>
